<svg xmlns="http://www.w3.org/2000/svg" viewBox="28.0 -867.0 892.0 993.0" preserveAspectRatio="xMidYMid meet" aria-label="행"><path d="M219 70C219 193 348 263 561 263C777 263 908 195 908 70C908 -56 781 -126 561 -126C343 -126 219 -54 219 70ZM920 270H773V479H701V310H557V857H701V609H773V863H920ZM285 283C181 283 59 332 60 456C62 582 183 623 285 623C399 623 510 578 510 455C510 332 400 283 285 283ZM359 769H518V653H28V769H209V867H359ZM375 70C375 15 468 -12 561 -12C656 -12 754 14 754 70C754 125 652 152 561 152C469 152 375 127 375 70ZM285 518C244 518 203 500 203 455C203 410 242 389 285 389C330 389 366 411 366 455C366 498 328 518 285 518Z" transform="scale(1,-1)" fill="#171919"/></svg>