<svg xmlns="http://www.w3.org/2000/svg" viewBox="22.0 29.0 8211.0 2081.0" fill="#0d0d0d"><path d="M858 -140H147V145H705V235H147V329H832V53H273V-47H858ZM953 415H22V510H676C686 579 695 673 698 729H147V823H829C829 768 813 605 801 510H953Z" transform="translate(0.0,870.0) scale(1,-1)"/><path d="M973 411H806V-136H684V841H806V512H973ZM563 98C477 146 381 220 322 327C267 218 174 140 68 76L-5 157C141 238 260 359 260 522V672H54V771H590V672H384V518C384 362 492 248 622 184Z" transform="translate(960.0,870.0) scale(1,-1)"/><path d="M815 841V517H981V416H815V-136H693V841ZM381 797V525C381 370 509 255 640 191L581 99C497 148 380 227 319 333C264 226 158 143 54 79L-24 162C123 243 257 365 257 527V797Z" transform="translate(2200.0,870.0) scale(1,-1)"/><path d="M604 442C604 216 507 95 338 95C175 95 69 216 69 442C69 676 175 790 338 790C506 790 604 675 604 442ZM855 -136H732V841H855ZM482 443C482 598 437 692 339 692C238 692 192 600 192 443C192 294 239 194 339 194C438 194 482 294 482 443Z" transform="translate(3160.0,870.0) scale(1,-1)"/><path d="M875 -136H753V841H875ZM44 164C284 164 531 171 708 189V93C536 68 275 65 44 65ZM364 316C203 316 81 415 81 561C81 700 207 805 360 805C529 805 636 693 636 558C636 420 531 316 364 316ZM512 560C512 645 456 704 360 704C264 704 205 638 205 560C205 475 263 413 362 413C458 413 512 474 512 560Z" transform="translate(4120.0,870.0) scale(1,-1)"/><path d="M875 -140H192V134H725V214H192V306H852V39H320V-46H875ZM853 361H731V841H853ZM558 394H94V807H558ZM440 486V715H212V486Z" transform="translate(5360.0,870.0) scale(1,-1)"/><path d="M150 319V780H834V683H272V416H847V319ZM552 265V104H953V6H22V104H427V265Z" transform="translate(6320.0,870.0) scale(1,-1)"/><path d="M150 247V571H700V693H147V789H823V476H273V342H860V247ZM552 202V77H953V-22H22V77H427V202Z" transform="translate(7280.0,870.0) scale(1,-1)"/><path d="M462 520H564V836H685V-104H564V420H462V121H62V764H462ZM874 -136H754V841H874ZM345 217V669H178V217Z" transform="translate(0.0,1970.0) scale(1,-1)"/><path d="M864 -136H742V841H864ZM411 797V525C411 370 538 255 669 191L609 99C525 148 410 227 348 333C293 226 187 143 83 79L5 162C153 243 286 365 286 527V797Z" transform="translate(960.0,1970.0) scale(1,-1)"/><path d="M853 -136H731V841H853ZM606 98C519 146 417 220 359 327C304 218 203 140 97 76L20 155C167 236 295 359 295 522V672H82V771H633V672H419V518C419 362 534 248 665 184Z" transform="translate(1920.0,1970.0) scale(1,-1)"/><path d="M152 460V692H702V744H152V835H823V605H273V549H849V460ZM953 408V314H22V408ZM858 -140H147V108H705V172H147V261H832V18H273V-50H858Z" transform="translate(2880.0,1970.0) scale(1,-1)"/><path d="M801 841V612H954V512H801V143H678V841ZM833 -119H162V219H286V-21H833ZM621 347C487 333 383 325 60 325V789H524V692H180V424C377 424 501 429 621 441Z" transform="translate(4120.0,1970.0) scale(1,-1)"/><path d="M801 841V612H954V512H801V143H678V841ZM833 -119H162V219H286V-21H833ZM621 347C487 333 383 325 60 325V789H524V692H180V424C377 424 501 429 621 441Z" transform="translate(5080.0,1970.0) scale(1,-1)"/><path d="M575 298C575 160 483 43 317 43C159 43 61 152 61 298C61 456 160 553 317 553C483 553 575 458 575 298ZM813 841V444H979V341H813V-136H691V841ZM380 699H632V602H3V699H255V841H380ZM455 298C455 396 412 456 317 456C229 456 182 393 182 298C182 206 229 142 317 142C412 142 455 206 455 298Z" transform="translate(6040.0,1970.0) scale(1,-1)"/><path d="M455 764C454 665 437 558 416 480H553V836H672V-104H553V379H412V466C343 292 252 176 99 68L9 139C191 270 323 423 328 668H62V764ZM866 -136H746V841H866Z" transform="translate(7000.0,1970.0) scale(1,-1)"/></svg>