<svg xmlns="http://www.w3.org/2000/svg" viewBox="0 0 376.228 427.711" width="376.228" height="427.711" aria-label="윤고딕 윤 설계">
<defs><clipPath id="cY"><rect width="376.228" height="427.711"/></clipPath></defs>
<g clip-path="url(#cY)">
<rect width="376.228" height="427.711" fill="#f5f5f5"/>
<svg x="-55.44400000000002" y="66.93" width="431.672" height="305.734" viewBox="0 0 431.672 306.527" preserveAspectRatio="none"><g id="Frame 244">
<line id="Line 60" y1="149.105" x2="431.672" y2="149.105" stroke="var(--stroke-0, #09D3FF)" stroke-width="0.396029"/>
<line id="Line 64" y1="132.076" x2="431.672" y2="132.076" stroke="var(--stroke-0, #09D3FF)" stroke-width="0.396029"/>
<line id="Line 65" y1="0.198015" x2="431.672" y2="0.198015" stroke="var(--stroke-0, #09D3FF)" stroke-width="0.396029"/>
<line id="Line 61" y1="193.46" x2="431.672" y2="193.46" stroke="var(--stroke-0, #09D3FF)" stroke-width="0.396029"/>
<line id="Line 62" y1="213.262" x2="431.672" y2="213.262" stroke="var(--stroke-0, #09D3FF)" stroke-width="0.396029"/>
<line id="Line 63" y1="306.329" x2="431.672" y2="306.329" stroke="var(--stroke-0, #09D3FF)" stroke-width="0.396029"/>
</g></svg>
<svg x="34.45599999999999" y="-0.4" width="302.962" height="427.711" viewBox="0 0 303.754 427.711" preserveAspectRatio="none"><g id="Frame 243">
<line id="Line 66" x1="35.0486" y1="8.65549e-09" x2="35.0486" y2="427.711" stroke="var(--stroke-0, #09D3FF)" stroke-width="0.396029"/>
<line id="Line 67" x1="0.594044" y1="8.65549e-09" x2="0.594062" y2="427.711" stroke="var(--stroke-0, #09D3FF)" stroke-width="0.396029"/>
<line id="Line 68" x1="92.8688" y1="8.65549e-09" x2="92.8689" y2="427.711" stroke="var(--stroke-0, #09D3FF)" stroke-width="0.396029"/>
<line id="Line 69" x1="101.581" y1="8.65549e-09" x2="101.581" y2="427.711" stroke="var(--stroke-0, #09D3FF)" stroke-width="0.396029"/>
<line id="Line 70" x1="157.818" y1="8.65549e-09" x2="157.818" y2="427.711" stroke="var(--stroke-0, #09D3FF)" stroke-width="0.396029"/>
<line id="Line 71" x1="182.767" y1="8.65549e-09" x2="182.767" y2="427.711" stroke="var(--stroke-0, #09D3FF)" stroke-width="0.396029"/>
<line id="Line 72" x1="238.212" y1="8.65549e-09" x2="238.212" y2="427.711" stroke="var(--stroke-0, #09D3FF)" stroke-width="0.396029"/>
<line id="Line 73" x1="277.418" y1="8.65549e-09" x2="277.418" y2="427.711" stroke="var(--stroke-0, #09D3FF)" stroke-width="0.396029"/>
<line id="Line 75" x1="268.31" y1="8.65549e-09" x2="268.31" y2="427.711" stroke="var(--stroke-0, #09D3FF)" stroke-width="0.396029"/>
<line id="Line 74" x1="303.556" y1="8.65549e-09" x2="303.556" y2="427.711" stroke="var(--stroke-0, #09D3FF)" stroke-width="0.396029"/>
</g></svg>
<path transform="translate(26.297,349.368) scale(0.31382,-0.31382)" d="M907 66H319V222H137V-73H907ZM991 426H26V287H349V146H526V287H607V146H783V287H991ZM696 688C696 643 631 608 512 608C386 608 323 642 323 688C323 743 387 772 512 772C623 772 696 741 696 688ZM878 688C878 809 740 900 512 900C277 900 139 811 139 688C139 575 272 481 512 481C743 481 878 575 878 688Z" fill="none" stroke="#09D3FF" stroke-width="22.3" stroke-linejoin="round"/>
</g></svg>