<svg xmlns="http://www.w3.org/2000/svg" viewBox="0 0 960 651" preserveAspectRatio="xMidYMid meet"><path transform="translate(128.00 434.92) scale(0.14648 -0.14648)" d="M1042 -8Q943 -41 805 -41Q517 -41 329 131Q101 338 101 739Q101 1143 335 1350Q526 1519 810 1519Q1096 1519 1290 1340Q1514 1133 1514 761Q1514 564 1466 431Q1427 304 1351 220L1521 61L1360 -107L1182 61Q1101 12 1042 -8ZM976 258 827 400 986 566 1135 424Q1170 496 1184 550Q1206 631 1206 739Q1206 987 1104.5 1122.5Q1003 1258 808 1258Q625 1258 516.0 1128.0Q407 998 407 739Q407 436 563 305Q664 220 805 220Q858 220 907 233Q934 240 976 258Z" fill="#171919"/>
<path transform="translate(418.35 434.92) scale(0.14648 -0.14648)" d="M1066 320Q1055 223 965 123Q825 -36 573 -36Q365 -36 206.0 98.0Q47 232 47 534Q47 817 190.5 968.0Q334 1119 563 1119Q699 1119 808.0 1068.0Q917 1017 988 907Q1052 810 1071 682Q1082 607 1080 466H334Q340 302 437 236Q496 195 579 195Q667 195 722 245Q752 272 775 320ZM784 654Q777 767 715.5 825.5Q654 884 563 884Q464 884 409.5 822.0Q355 760 341 654Z" fill="#171919"/>
<path transform="translate(642.20 434.92) scale(0.14648 -0.14648)" d="M441 -191Q487 -230 596 -230Q750 -230 802 -127Q836 -61 836 95V165Q795 95 748 60Q663 -5 527 -5Q317 -5 191.5 142.5Q66 290 66 542Q66 785 187.0 950.5Q308 1116 530 1116Q612 1116 673 1091Q777 1048 841 933V1090H1118V56Q1118 -155 1047 -262Q925 -446 579 -446Q370 -446 238.0 -364.0Q106 -282 92 -119H402Q414 -169 441 -191ZM393 372Q451 234 601 234Q701 234 770.0 309.5Q839 385 839 550Q839 705 773.5 786.0Q708 867 598 867Q448 867 391 726Q361 651 361 541Q361 446 393 372Z" fill="#171919"/></svg>