<svg xmlns="http://www.w3.org/2000/svg" viewBox="0 0 960 651" preserveAspectRatio="xMidYMid meet"><path transform="translate(152.00 432.28) scale(0.14648 -0.14648)" d="M1324 695Q1324 491 1258.0 340.5Q1192 190 1075 99L1317 -91L1126 -260L816 -11Q763 -20 706 -20Q525 -20 383.0 67.0Q241 154 163.0 315.5Q85 477 84 687V759Q84 974 161.5 1137.5Q239 1301 380.5 1388.5Q522 1476 704.0 1476.0Q886 1476 1027.5 1388.5Q1169 1301 1246.5 1137.5Q1324 974 1324 760ZM1020 761Q1020 990 938.0 1109.0Q856 1228 704 1228Q553 1228 471.0 1110.5Q389 993 388 766V695Q388 472 470.0 349.0Q552 226 706 226Q857 226 938.0 344.5Q1019 463 1020 690Z" fill="#171919"/>
<path transform="translate(416.13 432.28) scale(0.14648 -0.14648)" d="M609 -20Q371 -20 221.5 126.0Q72 272 72 515V543Q72 706 135.0 834.5Q198 963 313.5 1032.5Q429 1102 577 1102Q799 1102 926.5 962.0Q1054 822 1054 565V447H365Q379 341 449.5 277.0Q520 213 628 213Q795 213 889 334L1031 175Q966 83 855.0 31.5Q744 -20 609 -20ZM576 868Q490 868 436.5 810.0Q383 752 368 644H770V667Q768 763 718.0 815.5Q668 868 576 868Z" fill="#171919"/>
<path transform="translate(635.29 432.28) scale(0.14648 -0.14648)" d="M69 549Q69 798 187.5 950.0Q306 1102 507 1102Q685 1102 784 980L796 1082H1058V36Q1058 -106 993.5 -211.0Q929 -316 812.0 -371.0Q695 -426 538 -426Q419 -426 306.0 -378.5Q193 -331 135 -256L263 -80Q371 -201 525 -201Q640 -201 704.0 -139.5Q768 -78 768 35V93Q668 -20 505 -20Q310 -20 189.5 132.5Q69 285 69 537ZM358 528Q358 381 417.0 297.5Q476 214 579 214Q711 214 768 313V768Q710 867 581 867Q477 867 417.5 782.0Q358 697 358 528Z" fill="#171919"/></svg>