<svg width="28" height="28" viewBox="0 0 28 28" fill="none" xmlns="http://www.w3.org/2000/svg">
<path d="M9.95898 6.08301C9.95904 7.39462 11.0224 8.45801 12.334 8.45801H15.5C16.8116 8.45801 17.8749 7.39462 17.875 6.08301H20.25C21.1243 6.08302 21.8328 6.79172 21.833 7.66602V23.5C21.8327 24.3742 21.1243 25.083 20.25 25.083H7.58301C6.70892 25.0828 6.00026 24.3741 6 23.5V7.66602C6.00017 6.79186 6.70886 6.08324 7.58301 6.08301H9.95898ZM16.6094 7.21191C16.5496 7.27062 16.4845 7.32337 16.416 7.37207C16.4844 7.32335 16.5496 7.27064 16.6094 7.21191ZM17.083 6.08301C17.083 6.2469 17.0589 6.40503 17.0127 6.55371H17.0117C17.0271 6.50422 17.0402 6.45378 17.0508 6.40234C17.0719 6.29922 17.083 6.19238 17.083 6.08301Z" fill="#E4E4E4"/>
<rect x="10.75" y="4.5" width="6.33327" height="3.16664" rx="1.58332" fill="#FE7755"/>
<rect x="7.58398" y="12.416" width="12.6665" height="1.58332" rx="0.538328" fill="white"/>
<rect x="7.58398" y="16.4531" width="8.07492" height="1.34582" rx="0.538328" fill="white"/>
</svg>
