<svg width="118" height="66" viewBox="0 0 118 66" fill="none" xmlns="http://www.w3.org/2000/svg">
<path d="M39.2484 25.2023C40.8376 25.1795 41.9447 25.2243 43.3575 26.107C44.7907 27.006 45.708 28.4425 46.0846 30.0353C46.9607 33.7409 45.2325 37.6339 41.2734 38.3922C39.4179 38.7476 37.4923 38.5203 35.9035 37.5285C35.8211 39.8411 37.0047 39.944 39.0313 40.2522C40.2221 40.4332 41.413 40.2422 42.5809 39.9868C43.1008 39.8732 43.7385 39.5587 44.2791 39.3985C44.6862 39.6839 45.38 41.1486 45.6838 41.7093C45.9189 42.1361 46.1171 42.5019 46.392 42.9032C46.3437 42.9401 46.2937 42.9747 46.2422 43.0069C41.6509 45.8603 32.2638 45.4081 31.2709 38.8203C31.1419 37.9645 31.1674 37.2364 31.1679 36.3712L31.1743 32.7183L31.1687 28.4382C31.1663 27.8925 31.1177 26.3137 31.2354 25.8461C31.5784 25.4748 35.5654 25.5222 35.7988 25.7278C35.9265 25.9154 35.9031 26.2035 35.9079 26.4391C37.2159 25.535 37.7959 25.5184 39.2484 25.2023Z" fill="#262626"/>
<path d="M38.4183 29.4094C39.1914 29.2404 39.9837 29.4625 40.5948 29.9689C42.0305 31.1585 41.5569 34.1427 39.4821 34.2292C38.3278 34.2542 36.9342 34.1976 36.4375 32.8835C36.0052 31.7398 36.3292 30.2605 37.509 29.7227C37.8439 29.5699 38.0553 29.5399 38.3823 29.4226L38.4183 29.4094Z" fill="#FDFAF2"/>
<path d="M97.5895 24.9721C97.9318 24.8473 99.1826 25.0492 99.5721 25.108C100.893 25.3077 103.235 26.1605 104.1 27.1705C103.867 27.6422 102.19 30.0609 101.817 30.221C101.55 30.3362 98.6191 28.5452 97.6823 29.251C96.0494 30.4813 99.8176 31.225 100.567 31.6376C101.263 32.0204 101.927 32.2252 102.607 32.6735C103.138 33.0227 103.583 33.4893 103.906 34.0373C105.059 35.9678 104.4 38.7754 102.53 40.0038C101.357 40.7744 99.0605 41.35 97.6984 40.9926C96.848 40.8966 96.0448 40.7342 95.2266 40.4916C94.5698 40.2969 91.6855 39.3248 91.4205 38.845C91.4112 38.6365 92.8954 35.7922 93.1357 35.528C93.1887 35.4699 93.2688 35.4442 93.3454 35.4605C93.7292 35.5407 94.1239 35.8153 94.5105 35.9574C95.5994 36.3357 97.1585 37.02 98.3253 36.9372C100.041 36.8153 99.3301 35.4312 98.0885 35.0574C94.227 33.895 90.4173 31.7012 92.9254 27.1214C93.7712 25.5768 96.0915 25.2268 97.5895 24.9721Z" fill="#262626"/>
<path d="M13.8895 25.4734C14.6025 25.4494 16.7279 25.3356 17.3573 25.5243C17.4505 25.5523 17.6023 25.6003 17.6424 25.7012C17.7874 26.0652 17.6644 26.8444 17.67 27.248C17.6814 28.0622 17.8122 28.866 17.8206 29.679C17.8384 31.3905 17.3225 33.6739 18.1929 35.2251C18.6607 36.0588 19.4778 36.5001 20.3746 36.7358C21.3086 36.9813 22.3294 36.7821 23.1532 36.2946C23.8224 35.8985 24.3752 35.181 24.5924 34.4402C24.861 33.5247 24.7092 28.8743 24.7084 27.5496C24.708 26.9537 24.639 26.2576 24.7898 25.679C25.0019 25.4476 25.5797 25.4171 25.877 25.445C26.6385 25.5165 28.231 25.2625 28.8143 25.6641C28.9278 25.98 28.856 26.8103 28.8948 27.1622C29.005 28.1604 29.0361 29.0139 29.0308 30.0123C29.0379 31.7833 29.1274 33.4257 28.7382 35.1443C27.7322 39.5868 22.89 42.0507 18.6575 40.5381C16.7738 39.8649 15.6425 39.0326 14.6221 37.322C14.0912 36.4419 13.7337 35.4683 13.5688 34.4537C13.4433 33.6939 13.484 32.6959 13.4856 31.9133L13.4912 28.2081C13.4891 27.5091 13.4704 26.5616 13.4328 25.8434C13.4243 25.6804 13.7342 25.5422 13.8895 25.4734Z" fill="#262626"/>
<path d="M63.2309 32.1519C63.6775 31.1922 66.0645 26.1935 66.5428 25.6995C66.9403 25.5134 70.6509 25.6097 71.3106 25.6153C71.1585 26.0397 70.6872 26.9129 70.4682 27.3475C69.9105 28.4604 69.3458 29.5698 68.7749 30.6757C67.4992 33.1405 66.2818 35.6654 65.0055 38.1147C64.5913 38.9378 62.1523 44.0012 61.7715 44.2606C61.4275 44.1688 60.8254 43.8456 60.4728 43.6764C59.6397 43.2743 58.8036 42.8783 57.9647 42.4886C58.4631 41.138 59.4236 39.7491 60.013 38.4173C60.2706 37.835 60.7857 37.3001 60.4987 36.6578C60.0729 35.7045 59.6016 34.7712 59.139 33.8356L56.3599 28.2105C56.0677 27.6151 55.3252 26.1862 55.1548 25.6154C56.4558 25.6218 57.7567 25.6205 59.0577 25.6114C59.385 25.6064 59.7278 25.6164 60.0562 25.621C60.4641 26.2404 61.1106 27.7307 61.4581 28.4571C62.0296 29.6529 62.7153 30.9429 63.2309 32.1519Z" fill="#262626"/>
<path d="M73.2899 32.2046C73.3619 32.2295 73.5446 32.3473 73.5792 32.4101C74.8565 34.7296 76.4882 36.4195 79.2746 36.7086C81.5943 36.9491 83.8241 35.8949 85.2213 33.9747C85.5232 33.5596 85.9957 32.633 86.3368 32.3234C86.4848 32.29 86.5666 32.3043 86.7067 32.369C87.9253 32.9328 89.1323 33.527 90.344 34.1064C90.6217 34.2394 91.0861 34.3311 91.2152 34.6143C91.2048 34.9996 89.8382 37.7385 89.5748 38.1045C89.402 38.123 89.1104 37.9337 88.9266 37.84L87.9863 37.3741C84.8116 40.5196 80.5007 41.9886 76.2013 40.2888C74.1167 39.4645 72.2113 38.1955 70.9386 36.3211C70.681 35.9417 69.8127 34.4065 69.8963 34.0017C70.2489 33.5917 72.6031 32.6187 73.2899 32.2046Z" fill="#262626"/>
<path d="M48.7653 19.9283L52.8476 19.9272L53.2 20.2735L53.1966 34.7898C53.1962 35.4055 53.2512 40.0207 53.1433 40.2871L53.0217 40.318L48.6775 40.3125L48.4591 39.9307L48.459 20.2955L48.7653 19.9283Z" fill="#262626"/>
<path d="M75.543 25.4842C75.9999 25.3796 78.6151 25.3755 78.9136 25.6807C78.9873 26.004 78.9775 30.5366 78.9066 30.6788L78.777 30.7091C78.1409 30.7106 75.687 30.7985 75.2889 30.5953C75.0993 30.0867 75.2024 26.4975 75.2059 25.6892C75.2065 25.6137 75.4433 25.5307 75.543 25.4842Z" fill="#262626"/>
<path d="M83.0015 25.4735C85.4848 25.1611 85.9573 27.7095 85.3938 29.5641C85.1691 30.3031 84.5716 30.6527 83.9234 30.9359C83.6134 31.0357 83.1923 31.0213 82.8927 30.9104C81.3791 30.3333 81.3111 29.0242 81.3842 27.6338C81.4488 26.3932 81.9725 26.0013 83.0015 25.4735Z" fill="#262626"/>
</svg>
