<svg xmlns="http://www.w3.org/2000/svg" viewBox="17.0 -828.0 831.0 966.0" preserveAspectRatio="xMidYMid meet" aria-label="행"><path d="M847 42C847 -107 680 -138 523 -138C373 -138 202 -107 202 42C202 190 375 224 523 224C677 224 847 190 847 42ZM266 271C165 271 52 329 54 438C56 552 164 604 266 604C374 604 478 548 478 437C478 329 373 271 266 271ZM848 242H759V482H649V278H559V816H649V560H759V820H848ZM753 41C753 136 628 154 524 154C420 154 295 136 295 41C295 -55 423 -68 524 -68C628 -68 753 -54 753 41ZM310 718H511V649H17V718H220V828H310ZM266 534C194 534 142 498 142 437C142 376 193 340 266 340C342 340 392 377 392 437C392 496 341 534 266 534Z" transform="scale(1,-1)" fill="#171919"/></svg>