<svg width="250" height="200" viewBox="0 0 250 200" fill="none" xmlns="http://www.w3.org/2000/svg">
<path d="M4.01208 162.942C5.23911 164.827 13.7222 172.886 37.722 185.797C62.7528 199.262 84.864 195.69 100.083 195.038C117.005 194.313 129.589 183.492 133.839 178.945C142.475 169.707 136.07 145.397 134.859 139.791C134.305 137.228 132.005 135.159 129.771 133.894C128.718 133.298 127.239 134.568 126.194 135.778C124.044 138.265 123.526 141.775 123.521 144.921C123.516 147.932 126.148 150.692 129.483 153.302C136.602 158.874 154.945 157.738 170.782 155.999C185.33 154.401 200.662 142.896 217.476 126.764C233.03 111.84 237.341 92.2037 240.541 71.7283C243.463 53.0379 236.79 38.3874 229.746 26.0543C224.001 15.9942 210.158 10.7532 201.713 7.97908C191.875 4.7472 212.104 34.1294 214.016 36.3717C219.5 42.8023 205.781 14.3455 204.899 8.98918C206.417 5.71345 216.346 4.35325 231.325 4.04212C237.783 3.9644 241.919 4.04942 245.988 4.13702" stroke="#7DF9B7" stroke-width="8" stroke-linecap="round"/>
</svg>
