<svg width="204" height="204" viewBox="0 0 204 204" fill="none" xmlns="http://www.w3.org/2000/svg">
<circle cx="97.7493" cy="135.999" r="12.75" fill="#D9D9D9"/>
<circle cx="148.75" cy="135.999" r="12.75" fill="#D9D9D9"/>
<path d="M97.7493 123.249C104.791 123.249 110.499 128.958 110.499 135.999C110.499 143.041 104.791 148.749 97.7493 148.749C90.7077 148.749 84.9993 143.041 84.9993 135.999C84.9993 128.958 90.7077 123.249 97.7493 123.249ZM148.749 123.249C155.791 123.249 161.499 128.958 161.499 135.999C161.499 143.041 155.791 148.749 148.749 148.749C141.708 148.749 135.999 143.041 135.999 135.999C135.999 128.958 141.708 123.249 148.749 123.249Z" fill="#D9D9D9"/>
<path d="M148.75 123.25C155.791 123.251 161.499 128.959 161.499 136.001H144.499C141.17 136.001 138.289 134.085 136.894 131.297C138.766 126.583 143.369 123.25 148.75 123.25ZM165.45 76.5001C168.292 76.5002 170.946 77.9206 172.522 80.285L185.571 99.8591C186.502 101.255 186.999 102.896 186.999 104.574V127.5C186.999 132.194 183.194 136.001 178.5 136.001H166.596C166.596 126.143 158.608 118.155 148.75 118.154C143.754 118.154 139.239 120.206 136 123.513V84.9999C136 80.3057 139.805 76.5001 144.499 76.5001H165.45Z" fill="#E4E4E4"/>
<rect x="42.4995" y="68.0003" width="34" height="8.49999" rx="4.23496" fill="#FE7755"/>
<rect x="16.9993" y="84.9999" width="34" height="8.49999" rx="4.23496" fill="#FE7755"/>
<rect x="33.9997" y="102" width="34" height="8.49999" rx="4.23496" fill="#FE7755"/>
<path d="M144.499 59.4996C149.193 59.4996 152.999 63.305 152.999 67.9993V118.663C151.637 118.33 150.213 118.153 148.749 118.153C138.891 118.154 130.902 126.142 130.902 136H115.596C115.596 126.142 107.607 118.153 97.7488 118.153C87.8907 118.153 79.9026 126.142 79.9024 136H67.999C63.3049 136 59.4995 132.194 59.4992 127.5V102H63.7496C66.0966 102 67.999 100.097 67.999 97.7501C67.999 96.6138 67.5523 95.5823 66.8259 94.8198C66.7945 94.7864 66.7635 94.7525 66.7308 94.7199L59.4992 87.4882V67.9993C59.4993 63.3051 63.3047 59.4997 67.999 59.4996H144.499ZM97.7488 123.25C104.79 123.25 110.499 128.958 110.499 136H84.9986C84.9988 128.958 90.7074 123.251 97.7488 123.25ZM148.749 123.25C150.239 123.25 151.67 123.506 152.999 123.976V127.5C152.999 132.194 149.193 136 144.499 136H135.999C136 128.958 141.707 123.251 148.749 123.25Z" fill="#FE7755"/>
<path d="M169.999 77.8212C170.989 78.4482 171.853 79.2813 172.522 80.285L185.571 99.8591C186.502 101.255 186.999 102.896 186.999 104.574V110.5H178.499C173.805 110.5 170 106.695 169.999 102V77.8212Z" fill="#D9D9D9"/>
<path d="M97.7493 123.249C104.791 123.249 110.499 128.958 110.499 135.999C110.499 143.041 104.791 148.749 97.7493 148.749C90.7077 148.749 84.9993 143.041 84.9993 135.999C84.9993 128.958 90.7077 123.249 97.7493 123.249ZM148.749 123.249C155.791 123.249 161.499 128.958 161.499 135.999C161.499 143.041 155.791 148.749 148.749 148.749C141.708 148.749 135.999 143.041 135.999 135.999C135.999 128.958 141.708 123.249 148.749 123.249Z" fill="#FE7755"/>
</svg>
