<svg width="204" height="204" viewBox="0 0 204 204" fill="none" xmlns="http://www.w3.org/2000/svg">
<circle cx="97.7504" cy="136.001" r="12.75" fill="#D9D9D9"/>
<circle cx="148.751" cy="136.001" r="12.75" fill="#D9D9D9"/>
<path d="M97.7504 123.251C104.792 123.251 110.5 128.959 110.5 136.001C110.5 143.043 104.792 148.751 97.7504 148.751C90.7087 148.751 85.0003 143.043 85.0003 136.001C85.0003 128.959 90.7087 123.251 97.7504 123.251ZM148.751 123.251C155.792 123.251 161.501 128.959 161.501 136.001C161.501 143.043 155.792 148.751 148.751 148.751C141.709 148.751 136.001 143.043 136.001 136.001C136.001 128.959 141.709 123.251 148.751 123.251Z" fill="#D9D9D9"/>
<path d="M148.752 123.25C155.793 123.25 161.501 128.959 161.501 136H144.501C141.172 136 138.291 134.085 136.896 131.297C138.768 126.583 143.371 123.25 148.752 123.25ZM165.452 76.4995C168.294 76.4996 170.948 77.92 172.524 80.2844L185.573 99.8586C186.504 101.255 187.001 102.895 187.001 104.574V127.5C187.001 132.194 183.196 136 178.501 136H166.598C166.598 126.142 158.61 118.154 148.752 118.154C143.756 118.154 139.24 120.206 136.001 123.513V84.9993C136.002 80.3051 139.807 76.4995 144.501 76.4995H165.452Z" fill="#E4E4E4"/>
<rect x="42.4982" y="68.0007" width="34.0001" height="8.50003" rx="4.23496" fill="#FE7755"/>
<rect x="16.9977" y="85.0003" width="34.0001" height="8.50003" rx="4.23496" fill="#FE7755"/>
<rect x="33.9993" y="102" width="34.0001" height="8.50003" rx="4.23496" fill="#FE7755"/>
<path d="M144.5 59.4998C149.195 59.4999 153 63.3053 153 67.9997V118.664C151.638 118.331 150.214 118.154 148.75 118.154C138.892 118.154 130.903 126.142 130.903 136H115.597C115.597 126.142 107.608 118.154 97.7496 118.154C87.8915 118.154 79.9034 126.142 79.9032 136H67.9997C63.3055 136 59.5002 132.195 59.4998 127.5V102.001H63.7502C66.0972 102.001 67.9997 100.098 67.9997 97.7506C67.9997 96.6142 67.553 95.5828 66.8266 94.8203C66.7952 94.7868 66.7641 94.7529 66.7315 94.7203L59.4998 87.4886V67.9997C59.4999 63.3054 63.3054 59.5 67.9997 59.4998H144.5ZM97.7496 123.251C104.791 123.251 110.5 128.959 110.5 136H84.9993C84.9996 128.959 90.7082 123.251 97.7496 123.251ZM148.75 123.251C150.24 123.251 151.671 123.506 153 123.976V127.5C153 132.195 149.194 136 144.5 136H136C136.001 128.959 141.708 123.251 148.75 123.251Z" fill="#FE7755"/>
<path d="M170.001 77.8206C170.99 78.4476 171.854 79.2807 172.523 80.2844L185.572 99.8586C186.503 101.255 187 102.896 187 104.574V110.5H178.5C173.806 110.5 170.001 106.694 170.001 102V77.8206Z" fill="#D9D9D9"/>
<path d="M97.7504 123.251C104.792 123.251 110.5 128.959 110.5 136.001C110.5 143.043 104.792 148.751 97.7504 148.751C90.7087 148.751 85.0003 143.043 85.0003 136.001C85.0003 128.959 90.7087 123.251 97.7504 123.251ZM148.751 123.251C155.792 123.251 161.501 128.959 161.501 136.001C161.501 143.043 155.792 148.751 148.751 148.751C141.709 148.751 136.001 143.043 136.001 136.001C136.001 128.959 141.709 123.251 148.751 123.251Z" fill="#FE7755"/>
</svg>
