<svg width="940" height="204" viewBox="0 0 940 204" fill="none" xmlns="http://www.w3.org/2000/svg">
<path d="M391.394 136.757C391.394 145.447 384.35 152.491 375.661 152.491H320.594C311.905 152.491 304.861 145.447 304.861 136.757V97.423H391.394V136.757ZM375.661 42.3586C384.35 42.3586 391.394 49.4032 391.394 58.0924V89.5561H304.861V58.0924C304.861 49.4033 311.905 42.3588 320.594 42.3586H375.661Z" fill="#E4E4E4"/>
<rect x="312.73" y="65.9573" width="7.86659" height="15.7332" rx="3.93246" fill="#FE7755"/>
<rect x="312.73" y="105.292" width="7.86659" height="23.5998" rx="3.93246" fill="#FE7755"/>
<path d="M164.013 76.2408C167.006 76.2415 169.433 78.668 169.434 81.6613V97.9297C169.433 100.923 167.006 103.35 164.013 103.35H163.887L150.193 153.572C149.55 155.93 147.403 157.569 144.958 157.569H58.3614C55.9164 157.569 53.7695 155.93 53.1261 153.572L39.4324 103.35H39.3067C36.3133 103.35 33.8868 100.923 33.8861 97.9297V81.6613C33.8868 78.668 36.3133 76.2415 39.3067 76.2408H164.013Z" fill="#E4E4E4"/>
<path d="M90.7018 42.8187C91.3048 42.2002 92.2819 42.2002 92.8849 42.8187L96.707 46.7394C97.3097 47.358 97.3098 48.3606 96.707 48.9791L70.1321 76.2418H58.1217L90.7018 42.8187ZM110.433 42.8187C111.036 42.2 112.014 42.2 112.617 42.8187L145.197 76.2418H133.186L106.611 48.9791C106.008 48.3605 106.009 47.358 106.611 46.7394L110.433 42.8187Z" fill="#E4E4E4"/>
<path d="M98.1345 141.306C98.1345 142.803 99.3482 144.016 100.845 144.016H102.201C103.698 144.016 104.912 142.803 104.912 141.306V112.841C104.912 111.343 103.698 110.13 102.201 110.13H100.845C99.3482 110.13 98.1345 111.343 98.1345 112.841V141.306Z" fill="#FE7755"/>
<path d="M72.0066 141.506C72.215 142.989 73.5858 144.022 75.0685 143.813L76.4107 143.625C77.8934 143.416 78.9264 142.045 78.718 140.563L74.7565 112.375C74.5481 110.892 73.1772 109.859 71.6946 110.068L70.3523 110.256C68.8697 110.465 67.8367 111.835 68.045 113.318L72.0066 141.506Z" fill="#FE7755"/>
<path d="M124.063 141.002C123.854 142.485 124.887 143.856 126.37 144.064L127.712 144.253C129.195 144.461 130.566 143.428 130.774 141.945L134.736 113.757C134.944 112.275 133.911 110.904 132.428 110.696L131.086 110.507C129.603 110.299 128.233 111.332 128.024 112.814L124.063 141.002Z" fill="#FE7755"/>
<path d="M618.947 67.7737C618.947 81.8101 607.568 93.1889 593.532 93.1889C579.495 93.1889 568.116 81.8101 568.116 67.7737C568.116 53.7373 579.495 42.3586 593.532 42.3586C607.568 42.3586 618.947 53.7373 618.947 67.7737Z" fill="#E4E4E4"/>
<path d="M565.53 97.5368C568.425 94.669 572.963 95.0094 576.482 97.0632C581.491 99.9862 587.317 101.661 593.535 101.661C599.751 101.661 605.575 99.9867 610.583 97.0651C614.102 95.0117 618.64 94.6719 621.534 97.5397C631.913 107.822 640.164 123.645 644.887 142.629C646.158 147.735 642.15 152.491 636.888 152.491H550.176C544.913 152.491 540.905 147.735 542.176 142.629C546.899 123.644 555.15 107.819 565.53 97.5368ZM593.531 84.7172C594.034 84.7172 594.536 84.7285 595.036 84.7511C601.423 85.0393 601.94 92.6044 595.566 93.1087C594.896 93.1617 594.219 93.1887 593.535 93.1887C592.85 93.1887 592.17 93.1615 591.499 93.1083C585.125 92.6027 585.643 85.0385 592.03 84.7509C592.529 84.7285 593.029 84.7172 593.531 84.7172Z" fill="#E4E4E4"/>
<path d="M817.16 50.8321C817.161 57.8501 822.85 63.5389 829.868 63.5389H846.811C853.829 63.5389 859.519 57.8501 859.519 50.8321V50.8311H872.227C876.905 50.8312 880.698 54.624 880.698 59.3026V144.02C880.698 148.699 876.906 152.491 872.227 152.491H804.453C799.774 152.491 795.981 148.699 795.981 144.02V59.3026C795.981 54.624 799.774 50.8312 804.453 50.8311H817.16V50.8321ZM827.349 58.9226C827.614 59.0051 827.885 59.0752 828.161 59.1317C828.023 59.1034 827.886 59.0718 827.751 59.0369L827.349 58.9226ZM822.419 54.87C822.55 55.11 822.691 55.3431 822.843 55.5684C822.767 55.4557 822.693 55.3411 822.623 55.2246L822.419 54.87ZM822.062 54.1296H822.063H822.062ZM821.44 51.6975L821.441 51.6985L821.44 51.6975Z" fill="#E4E4E4"/>
<rect x="821.397" y="42.3586" width="33.8869" height="16.9434" rx="8.46992" fill="#FE7755"/>
<rect x="804.452" y="84.7172" width="67.7737" height="8.47171" rx="2.87977" fill="white"/>
<rect x="804.452" y="106.319" width="43.2057" height="7.20096" rx="2.87977" fill="white"/>
</svg>
