<svg width="940" height="204" viewBox="0 0 940 204" fill="none" xmlns="http://www.w3.org/2000/svg">
<path d="M391.395 136.758C391.395 145.447 384.35 152.492 375.661 152.492H320.595C311.906 152.492 304.862 145.447 304.862 136.758V97.4238H391.395V136.758ZM375.661 42.3595C384.35 42.3595 391.395 49.4041 391.395 58.0932V89.5569H304.862V58.0932C304.862 49.4042 311.906 42.3597 320.595 42.3595H375.661Z" fill="#E4E4E4"/>
<rect x="312.729" y="65.9572" width="7.86658" height="15.7332" rx="3.93246" fill="#FE7755"/>
<rect x="312.729" y="105.293" width="7.86658" height="23.5997" rx="3.93246" fill="#FE7755"/>
<path d="M164.014 76.2416C167.007 76.2423 169.433 78.6688 169.434 81.6622V97.9305C169.433 100.924 167.007 103.35 164.014 103.351H163.888L150.194 153.572C149.551 155.931 147.404 157.57 144.959 157.57H58.3623C55.9173 157.57 53.7703 155.931 53.127 153.572L39.4333 103.351H39.3076C36.3142 103.35 33.8877 100.924 33.887 97.9305V81.6622C33.8877 78.6688 36.3142 76.2423 39.3076 76.2416H164.014Z" fill="#E4E4E4"/>
<path d="M90.7031 42.8186C91.3061 42.2001 92.2831 42.2001 92.8861 42.8186L96.7082 46.7393C97.3109 47.3579 97.311 48.3605 96.7082 48.979L70.1333 76.2416H58.123L90.7031 42.8186ZM110.434 42.8186C111.037 42.1999 112.015 42.1999 112.618 42.8186L145.198 76.2416H133.188L106.613 48.979C106.01 48.3604 106.01 47.3579 106.613 46.7393L110.434 42.8186Z" fill="#E4E4E4"/>
<path d="M98.1357 141.306C98.1357 142.803 99.3494 144.017 100.847 144.017H102.202C103.699 144.017 104.913 142.803 104.913 141.306V112.841C104.913 111.344 103.699 110.13 102.202 110.13H100.847C99.3494 110.13 98.1357 111.344 98.1357 112.841V141.306Z" fill="#FE7755"/>
<path d="M72.0078 141.507C72.2162 142.989 73.587 144.022 75.0696 143.814L76.4119 143.625C77.8946 143.417 78.9276 142.046 78.7192 140.564L74.7576 112.376C74.5493 110.893 73.1784 109.86 71.6958 110.068L70.3535 110.257C68.8709 110.465 67.8379 111.836 68.0462 113.319L72.0078 141.507Z" fill="#FE7755"/>
<path d="M124.064 141.003C123.855 142.485 124.888 143.856 126.371 144.065L127.713 144.253C129.196 144.462 130.567 143.429 130.775 141.946L134.737 113.758C134.945 112.276 133.912 110.905 132.429 110.696L131.087 110.508C129.604 110.299 128.234 111.332 128.025 112.815L124.064 141.003Z" fill="#FE7755"/>
<path d="M618.948 67.7746C618.948 81.8109 607.569 93.1897 593.533 93.1897C579.496 93.1897 568.117 81.8109 568.117 67.7746C568.117 53.7382 579.496 42.3595 593.533 42.3595C607.569 42.3595 618.948 53.7382 618.948 67.7746Z" fill="#E4E4E4"/>
<path d="M565.528 97.5366C568.423 94.6688 572.96 95.0092 576.48 97.063C581.489 99.986 587.315 101.661 593.533 101.661C599.749 101.661 605.573 99.9865 610.581 97.0649C614.1 95.0115 618.638 94.6717 621.532 97.5395C631.911 107.822 640.161 123.645 644.885 142.628C646.155 147.735 642.148 152.491 636.885 152.491H550.173C544.911 152.491 540.903 147.735 542.174 142.628C546.897 123.644 555.148 107.819 565.528 97.5366ZM593.529 84.717C594.032 84.717 594.534 84.7284 595.034 84.7509C601.421 85.0391 601.937 92.6042 595.564 93.1085C594.894 93.1615 594.216 93.1885 593.533 93.1885C592.847 93.1885 592.168 93.1614 591.496 93.1081C585.123 92.6026 585.64 85.0383 592.028 84.7508C592.526 84.7283 593.027 84.717 593.529 84.717Z" fill="#E4E4E4"/>
<path d="M817.16 50.831C817.16 57.849 822.849 63.5378 829.868 63.5378H846.811C853.829 63.5378 859.518 57.849 859.518 50.831V50.83H872.226C876.905 50.8301 880.697 54.6229 880.698 59.3015V144.019C880.698 148.697 876.905 152.49 872.226 152.49H804.452C799.773 152.49 795.981 148.697 795.981 144.019V59.3015C795.981 54.6229 799.773 50.8301 804.452 50.83H817.16V50.831ZM827.348 58.9215C827.614 59.004 827.884 59.0742 828.16 59.1306C828.022 59.1023 827.885 59.0707 827.75 59.0358L827.348 58.9215ZM822.419 54.8689C822.549 55.1089 822.69 55.3421 822.843 55.5673C822.766 55.4546 822.693 55.34 822.622 55.2235L822.419 54.8689ZM822.061 54.1286H822.062H822.061ZM821.439 51.6964L821.44 51.6974L821.439 51.6964Z" fill="#E4E4E4"/>
<rect x="821.396" y="42.3595" width="33.8868" height="16.9434" rx="8.46992" fill="#FE7755"/>
<rect x="804.453" y="84.717" width="67.7736" height="8.4717" rx="2.87977" fill="white"/>
<rect x="804.453" y="106.318" width="43.2057" height="7.20094" rx="2.87977" fill="white"/>
</svg>
