<svg width="1750" height="969" viewBox="0 0 1750 969" fill="none" xmlns="http://www.w3.org/2000/svg">
<path d="M582.07 373.766C605.639 373.428 622.057 374.093 643.01 387.183C664.265 400.515 677.869 421.82 683.454 445.442C696.446 500.398 670.818 558.133 612.102 569.379C584.584 574.65 556.026 571.279 532.463 556.57C531.241 590.867 548.795 592.394 578.85 596.964C596.51 599.648 614.173 596.816 631.492 593.029C639.203 591.343 648.66 586.679 656.678 584.302C662.715 588.536 673.005 610.258 677.51 618.574C680.997 624.903 683.937 630.328 688.013 636.28C687.297 636.828 686.555 637.34 685.791 637.817C617.701 680.134 478.484 673.429 463.76 575.728C461.847 563.037 462.225 552.237 462.232 539.406L462.327 485.233L462.244 421.756C462.208 413.663 461.488 390.249 463.232 383.314C468.32 377.807 527.449 378.51 530.911 381.56C532.804 384.342 532.457 388.615 532.528 392.108C551.926 378.701 560.529 378.455 582.07 373.766Z" fill="#262626"/>
<path d="M569.764 436.158C581.23 433.652 592.979 436.945 602.042 444.455C623.334 462.097 616.31 506.355 585.54 507.638C568.422 508.009 547.753 507.169 540.387 487.68C533.976 470.718 538.781 448.78 556.278 440.804C561.246 438.539 564.381 438.093 569.23 436.354L569.764 436.158Z" fill="#FDFAF2"/>
<path d="M1447.3 370.355C1452.37 368.504 1470.92 371.497 1476.7 372.371C1496.28 375.332 1531.03 387.98 1543.84 402.957C1540.39 409.953 1515.52 445.824 1510 448.199C1506.03 449.907 1462.57 423.345 1448.67 433.812C1424.46 452.058 1480.34 463.088 1491.46 469.207C1501.78 474.885 1511.62 477.922 1521.7 484.569C1529.58 489.749 1536.18 496.669 1540.97 504.795C1558.07 533.426 1548.31 575.064 1520.57 593.283C1503.17 604.711 1469.11 613.247 1448.91 607.946C1436.3 606.522 1424.39 604.115 1412.25 600.516C1402.51 597.629 1359.74 583.212 1355.81 576.096C1355.67 573.005 1377.68 530.823 1381.24 526.904C1382.03 526.043 1383.22 525.661 1384.35 525.903C1390.04 527.093 1395.9 531.164 1401.63 533.272C1417.78 538.883 1440.9 549.031 1458.21 547.803C1483.65 545.996 1473.11 525.468 1454.7 519.924C1397.43 502.686 1340.93 470.151 1378.12 402.23C1390.67 379.323 1425.08 374.133 1447.3 370.355Z" fill="#262626"/>
<path d="M205.987 377.781C216.561 377.426 248.082 375.737 257.416 378.537C258.798 378.951 261.049 379.663 261.644 381.159C263.794 386.558 261.97 398.114 262.053 404.099C262.222 416.174 264.163 428.095 264.287 440.152C264.551 465.535 256.899 499.399 269.809 522.404C276.747 534.768 288.864 541.313 302.164 544.809C316.016 548.45 331.155 545.495 343.372 538.265C353.297 532.392 361.494 521.75 364.717 510.764C368.699 497.186 366.448 428.218 366.436 408.573C366.43 399.735 365.408 389.412 367.643 380.831C370.789 377.399 379.358 376.947 383.767 377.36C395.061 378.421 418.678 374.654 427.33 380.609C429.013 385.294 427.947 397.608 428.523 402.828C430.158 417.631 430.619 430.289 430.54 445.096C430.646 471.36 431.972 495.718 426.201 521.205C411.281 587.09 339.468 623.631 276.699 601.198C248.762 591.214 231.984 578.871 216.852 553.503C208.978 540.45 203.676 526.01 201.23 510.963C199.369 499.695 199.972 484.895 199.997 473.288L200.08 418.338C200.048 407.972 199.771 393.919 199.213 383.268C199.087 380.852 203.684 378.803 205.987 377.781Z" fill="#262626"/>
<path d="M937.746 476.829C944.368 462.596 979.77 388.463 986.862 381.137C992.758 378.377 1047.79 379.804 1057.57 379.887C1055.32 386.182 1048.33 399.131 1045.08 405.578C1036.81 422.082 1028.43 438.535 1019.97 454.936C1001.05 491.49 982.991 528.936 964.064 565.26C957.921 577.468 921.75 652.561 916.102 656.408C911 655.047 902.071 650.252 896.841 647.743C884.486 641.78 872.087 635.908 859.645 630.128C867.037 610.097 881.281 589.5 890.023 569.748C893.842 561.113 901.481 553.179 897.226 543.654C890.911 529.516 883.922 515.675 877.06 501.799L835.845 418.376C831.512 409.546 820.499 388.355 817.973 379.889C837.267 379.985 856.561 379.965 875.855 379.83C880.709 379.756 885.793 379.904 890.663 379.973C896.713 389.159 906.301 411.26 911.453 422.034C919.93 439.768 930.098 458.898 937.746 476.829Z" fill="#262626"/>
<path d="M1086.93 477.615C1088 477.985 1090.71 479.732 1091.22 480.662C1110.17 515.063 1134.37 540.125 1175.69 544.411C1210.09 547.979 1243.16 532.345 1263.88 503.866C1268.36 497.711 1275.37 483.968 1280.42 479.377C1282.62 478.882 1283.83 479.094 1285.91 480.053C1303.98 488.414 1321.88 497.227 1339.85 505.82C1343.97 507.792 1350.86 509.153 1352.77 513.352C1352.62 519.066 1332.35 559.685 1328.45 565.113C1325.88 565.388 1321.56 562.581 1318.83 561.191L1304.89 554.282C1257.81 600.931 1193.87 622.717 1130.11 597.508C1099.19 585.283 1070.94 566.463 1052.06 538.665C1048.24 533.039 1035.36 510.271 1036.6 504.268C1041.83 498.186 1076.75 483.757 1086.93 477.615Z" fill="#262626"/>
<path d="M723.214 295.556L783.758 295.54L788.983 300.675L788.933 515.959C788.927 525.09 789.743 593.536 788.143 597.487L786.339 597.946L721.913 597.864L718.674 592.202L718.672 301.001L723.214 295.556Z" fill="#262626"/>
<path d="M1120.34 377.945C1127.12 376.393 1165.9 376.332 1170.33 380.859C1171.42 385.654 1171.28 452.874 1170.23 454.983L1168.31 455.433C1158.87 455.454 1122.48 456.758 1116.57 453.745C1113.76 446.202 1115.29 392.973 1115.34 380.985C1115.35 379.866 1118.86 378.634 1120.34 377.945Z" fill="#262626"/>
<path d="M1230.95 377.789C1267.78 373.157 1274.79 410.951 1266.43 438.455C1263.1 449.415 1254.24 454.599 1244.63 458.799C1240.03 460.28 1233.78 460.067 1229.34 458.421C1206.89 449.862 1205.88 430.449 1206.97 409.828C1207.93 391.429 1215.69 385.618 1230.95 377.789Z" fill="#262626"/>
</svg>
