<svg width="117" height="28" viewBox="0 0 117 28" fill="none" xmlns="http://www.w3.org/2000/svg">
<path fill-rule="evenodd" clip-rule="evenodd" d="M109.488 8.77112C110.997 8.51132 112.432 9.52426 112.691 11.0333C112.951 12.5423 111.938 13.9766 110.429 14.2364C83.5527 18.8636 57.4689 23.3543 44.3903 25.619C37.8497 26.7515 34.5681 27.3255 32.9142 27.6212C32.0811 27.7702 31.6818 27.8452 31.4914 27.8832C31.4853 27.8844 31.4792 27.8855 31.4738 27.8866C30.2235 28.2561 28.8468 27.7003 28.2267 26.4989C27.5246 25.1384 28.0584 23.4656 29.4187 22.7632C29.8561 22.5374 30.3065 22.4648 30.4057 22.445C30.6582 22.3946 31.1093 22.311 31.9381 22.1628C33.6092 21.864 36.905 21.2874 43.444 20.1551C56.526 17.8899 82.6134 13.3981 109.488 8.77112ZM31.8589 27.7404C31.8614 27.7392 31.8646 27.7387 31.8671 27.7377C31.9164 27.7147 31.9575 27.6935 31.9625 27.691C31.9285 27.7085 31.8933 27.7244 31.8589 27.7404Z" fill="#7DF9B7"/>
<path d="M113.527 0.0168662C115.049 -0.150548 116.419 0.947257 116.586 2.46925C116.754 3.99122 115.656 5.36059 114.134 5.52813C81.1546 9.15568 49.184 12.6726 30.8165 14.9864C12.4908 17.2949 7.93681 18.362 3.40101 19.4173C1.90972 19.764 0.419685 18.8366 0.0727257 17.3453C-0.274209 15.854 0.653488 14.3642 2.14469 14.017C6.91117 12.9081 11.6601 11.8104 30.1234 9.48457C48.5457 7.16386 80.572 3.64179 113.527 0.0168662Z" fill="#7DF9B7"/>
</svg>
