<svg width="117" height="28" viewBox="0 0 117 28" fill="none" xmlns="http://www.w3.org/2000/svg">
<path fill-rule="evenodd" clip-rule="evenodd" d="M109.49 8.77128C110.999 8.51147 112.434 9.52443 112.693 11.0335C112.953 12.5425 111.94 13.9768 110.431 14.2366C83.5542 18.8639 57.4699 23.3548 44.391 25.6194C37.8503 26.752 34.5687 27.326 32.9148 27.6217C32.0816 27.7707 31.6823 27.8457 31.4919 27.8837C31.4858 27.8849 31.4797 27.886 31.4743 27.8871C30.224 28.2566 28.8473 27.7008 28.2272 26.4994C27.5251 25.1388 28.0589 23.466 29.4193 22.7636C29.8566 22.5378 30.307 22.4652 30.4062 22.4454C30.6587 22.395 31.1098 22.3114 31.9387 22.1632C33.6098 21.8644 36.9057 21.2877 43.4447 20.1555C56.5269 17.8902 82.6148 13.3983 109.49 8.77128ZM31.8595 27.7409C31.8619 27.7397 31.8651 27.7392 31.8676 27.7381C31.917 27.7152 31.9581 27.694 31.9631 27.6914C31.9291 27.709 31.8939 27.7249 31.8595 27.7409Z" fill="#7DF9B7"/>
<path d="M113.529 0.0168665C115.051 -0.150551 116.421 0.947274 116.588 2.46929C116.756 3.99129 115.658 5.36069 114.136 5.52823C81.156 9.15584 49.1849 12.6728 30.8171 14.9866C12.491 17.2952 7.93695 18.3623 3.40107 19.4176C1.90976 19.7644 0.419693 18.8369 0.0727269 17.3456C-0.274214 15.8543 0.6535 14.3644 2.14473 14.0173C6.91129 12.9083 11.6603 11.8106 30.1239 9.48473C48.5466 7.16398 80.5734 3.64186 113.529 0.0168665Z" fill="#7DF9B7"/>
</svg>
