<svg width="565" height="154" viewBox="0 0 565 154" fill="none" xmlns="http://www.w3.org/2000/svg">
<path d="M160.203 32.7342C170.065 32.5926 176.936 32.8701 185.703 38.3475C194.597 43.9265 200.29 52.8416 202.627 62.7264C208.064 85.7221 197.339 109.882 172.77 114.588C161.255 116.793 149.305 115.382 139.445 109.227C138.934 123.578 146.279 124.218 158.856 126.13C166.245 127.253 173.636 126.068 180.884 124.483C184.11 123.778 188.067 121.826 191.422 120.832C193.948 122.604 198.255 131.693 200.14 135.173C201.599 137.821 202.829 140.091 204.534 142.581C204.235 142.81 203.924 143.025 203.605 143.224C175.113 160.932 116.859 158.126 110.697 117.244C109.897 111.933 110.055 107.414 110.058 102.045L110.097 79.3767L110.063 52.8143C110.048 49.4275 109.747 39.6316 110.477 36.7293C112.605 34.4252 137.347 34.7188 138.796 35.9949C139.588 37.1588 139.443 38.9473 139.473 40.409C147.59 34.7989 151.19 34.6961 160.203 32.7342ZM168.562 62.3133C164.769 59.1708 159.853 57.793 155.056 58.8416L154.832 58.9236C152.803 59.6512 151.491 59.8372 149.412 60.785C142.091 64.1224 140.08 73.3026 142.763 80.4002C145.845 88.5554 154.493 88.9073 161.656 88.7517C174.532 88.215 177.471 69.6955 168.562 62.3133Z" fill="#262626"/>
<path d="M522.255 31.3058C524.379 30.5313 532.142 31.7838 534.559 32.1493C542.754 33.3886 557.292 38.6808 562.656 44.9481C561.211 47.8755 550.803 62.8855 548.493 63.8792C546.83 64.5939 528.645 53.4792 522.831 57.8593C512.698 65.4943 536.082 70.1097 540.734 72.6701C545.053 75.0458 549.172 76.3169 553.391 79.0983C556.688 81.2659 559.448 84.1614 561.454 87.5618C568.609 99.5422 564.522 116.965 552.916 124.589C545.636 129.371 531.384 132.943 522.931 130.725C517.653 130.129 512.669 129.121 507.592 127.616C503.515 126.408 485.616 120.375 483.971 117.397C483.914 116.104 493.125 98.4527 494.616 96.813C494.945 96.4525 495.442 96.2931 495.917 96.3943C498.299 96.892 500.748 98.5957 503.147 99.4775C509.905 101.826 519.581 106.072 526.821 105.558C537.469 104.802 533.057 96.2123 525.352 93.8924C501.388 86.679 477.746 73.0649 493.311 44.6438C498.56 35.0584 512.959 32.8865 522.255 31.3058Z" fill="#262626"/>
<path d="M2.83543 34.4134C7.26022 34.2647 20.4498 33.5581 24.3554 34.7295C24.934 34.9029 25.8758 35.2007 26.125 35.8268C27.0246 38.0859 26.2612 42.9216 26.2959 45.4259C26.3667 50.4786 27.1787 55.4669 27.2309 60.5121C27.341 71.1334 24.1395 85.3039 29.5414 94.9301C32.4445 100.104 37.515 102.843 43.08 104.305C48.8764 105.829 55.2113 104.592 60.3236 101.567C64.4767 99.1093 67.9067 94.6562 69.2551 90.0594C70.9217 84.3778 69.9795 55.5184 69.9745 47.2981C69.972 43.5998 69.5443 39.2802 70.4797 35.6895C71.7959 34.2532 75.3818 34.0641 77.2265 34.2371C81.9523 34.6809 91.8349 33.1047 95.4551 35.5966C96.1595 37.5571 95.7137 42.7099 95.9547 44.8939C96.6387 51.0882 96.8314 56.3848 96.7985 62.5809C96.8428 73.5709 97.3978 83.7635 94.9828 94.4285C88.7395 121.997 58.6899 137.288 32.4244 127.901C20.7344 123.723 13.7138 118.558 7.38179 107.943C4.08689 102.481 1.86824 96.439 0.844907 90.1427C0.0661455 85.4276 0.318584 79.2347 0.328953 74.3776L0.363636 51.3843C0.350407 47.0464 0.234198 41.1663 0.00106974 36.7093C-0.0518489 35.6981 1.87181 34.8407 2.83543 34.4134Z" fill="#262626"/>
<path d="M309.035 75.8592C311.806 69.9033 326.62 38.8828 329.588 35.8174C332.055 34.6625 355.081 35.2597 359.176 35.2943C358.232 37.9281 355.307 43.347 353.948 46.0444C350.487 52.9503 346.983 59.8351 343.439 66.6981C335.523 81.9938 327.968 97.6632 320.048 112.863C317.477 117.971 302.342 149.393 299.978 151.003C297.844 150.433 294.107 148.427 291.919 147.377C286.749 144.882 281.56 142.425 276.354 140.006C279.447 131.625 285.408 123.006 289.065 114.741C290.664 111.127 293.86 107.808 292.08 103.821C289.437 97.9056 286.513 92.1139 283.641 86.3075L266.395 51.3996C264.582 47.7049 259.974 38.8378 258.917 35.295C266.99 35.3351 275.064 35.3269 283.137 35.2704C285.168 35.2393 287.296 35.3015 289.334 35.3301C291.865 39.1739 295.877 48.4222 298.033 52.9303C301.58 60.3511 305.835 68.3562 309.035 75.8592Z" fill="#262626"/>
<path d="M371.461 76.1885C371.908 76.3433 373.042 77.0741 373.256 77.4635C381.183 91.8582 391.309 102.345 408.601 104.139C422.996 105.632 436.834 99.0898 445.504 87.1731C447.378 84.5976 450.31 78.8469 452.427 76.9258C453.346 76.7187 453.853 76.8074 454.722 77.2086C462.285 80.7073 469.775 84.3948 477.295 87.9905C479.018 88.8157 481.9 89.3853 482.701 91.1424C482.637 93.5334 474.156 110.53 472.522 112.802C471.449 112.917 469.64 111.742 468.499 111.16L462.664 108.269C442.962 127.789 416.21 136.906 389.529 126.357C376.592 121.241 364.768 113.367 356.869 101.734C355.271 99.3802 349.883 89.853 350.401 87.3411C352.589 84.7964 367.199 78.7586 371.461 76.1885Z" fill="#262626"/>
<path d="M219.266 0.00678719L244.6 0L246.787 2.14857L246.766 92.2334C246.764 96.0543 247.105 124.695 246.435 126.348L245.68 126.54L218.722 126.506L217.366 124.137L217.365 2.28516L219.266 0.00678719Z" fill="#262626"/>
<path d="M385.443 34.4819C388.279 33.8326 404.508 33.8072 406.36 35.7016C406.818 37.7078 406.757 65.8357 406.317 66.7185L405.513 66.9066C401.565 66.9155 386.337 67.4611 383.866 66.2004C382.69 63.0438 383.33 40.7704 383.351 35.7541C383.355 35.2857 384.825 34.7705 385.443 34.4819Z" fill="#262626"/>
<path d="M431.728 34.4164C447.139 32.4781 450.071 48.293 446.574 59.8018C445.179 64.3882 441.471 66.5575 437.449 68.3149C435.525 68.9345 432.911 68.8452 431.052 68.1565C421.659 64.5752 421.237 56.4518 421.691 47.8231C422.092 40.1241 425.342 37.6924 431.728 34.4164Z" fill="#262626"/>
</svg>
