<svg preserveAspectRatio="none" width="100%" height="100%" overflow="visible" style="display: block;" viewBox="0 0 411.29 393.588" fill="none" xmlns="http://www.w3.org/2000/svg">
<g id="Frame 332">
<g id="Vector">
<path d="M4 91.9846C23.0128 83.9966 43.6683 80.7 64.223 82.3732C84.7777 84.0463 104.628 90.6401 122.099 101.598C139.569 112.556 154.147 127.556 164.602 145.332C175.056 163.109 181.08 183.139 182.166 203.733C183.252 224.327 179.367 244.88 170.839 263.657C162.311 282.434 149.391 298.884 133.17 311.618C116.948 324.352 97.9009 332.996 77.6361 336.821C57.3712 340.646 36.4836 339.539 16.7363 333.594L33.3877 278.283C44.2616 281.556 55.7635 282.166 66.9225 280.06C78.0814 277.953 88.5698 273.193 97.5024 266.181C106.435 259.169 113.549 250.111 118.245 239.772C122.941 229.432 125.08 218.114 124.482 206.774C123.885 195.434 120.567 184.404 114.811 174.615C109.054 164.827 101.026 156.567 91.406 150.533C81.7858 144.499 70.855 140.868 59.5365 139.946C48.2179 139.025 36.8438 140.84 26.3743 145.239L4 91.9846Z" fill="var(--fill-0, #00E3E2)"/>
<path d="M196.031 43.0553C191.793 109.785 207.981 176.222 242.441 233.522C276.901 290.823 327.997 336.267 388.927 363.804L411.29 314.326C360.412 291.332 317.746 253.385 288.972 205.539C260.197 157.693 246.68 102.217 250.219 46.4969L196.031 43.0553Z" fill="var(--fill-0, #00E3E2)"/>
<path d="M265.262 223.932C325.416 196.325 375.848 151.221 409.973 94.5105L363.449 66.5154C334.954 113.87 292.843 151.532 242.614 174.584L265.262 223.932Z" fill="var(--fill-0, #00E3E2)"/>
</g>
<path id="Subtract" d="M251 318.669C251 355.303 220.769 385 183.477 385H124V330.242H195.258V0H251V318.669Z" fill="var(--fill-0, #161616)"/>
</g>
</svg>
