<svg preserveAspectRatio="none" width="100%" height="100%" overflow="visible" style="display: block;" viewBox="0 0 629.53 590.539" fill="none" xmlns="http://www.w3.org/2000/svg">
<g id="Frame 338">
<g id="Union">
<mask id="path-1-inside-1_863_6123" fill="white">
<path d="M178.304 205.277H150.484V274.403H181.677V310.232H150.484V431.206C150.484 442.613 141.237 451.861 129.83 451.861H113.392V310.232H76.2978V430.996C76.2978 442.402 67.0504 451.65 55.6435 451.65H0.00385214V415.822H40.4687V310.232H3.3769V295.057C3.37697 283.65 12.6243 274.403 24.0312 274.403H40.4687V205.277H9.69916V190.102C9.69928 178.695 18.9458 169.448 30.3525 169.448H178.304V205.277ZM76.2978 205.277V274.403H113.392V205.277H76.2978Z"/>
</mask>
<path d="M178.304 205.277H150.484V274.403H181.677V310.232H150.484V431.206C150.484 442.613 141.237 451.861 129.83 451.861H113.392V310.232H76.2978V430.996C76.2978 442.402 67.0504 451.65 55.6435 451.65H0.00385214V415.822H40.4687V310.232H3.3769V295.057C3.37697 283.65 12.6243 274.403 24.0312 274.403H40.4687V205.277H9.69916V190.102C9.69928 178.695 18.9458 169.448 30.3525 169.448H178.304V205.277ZM76.2978 205.277V274.403H113.392V205.277H76.2978Z" fill="var(--fill-0, #00E3E2)"/>
<path d="M178.304 205.277V206.16H179.187V205.277H178.304ZM150.484 205.277V204.394H149.601V205.277H150.484ZM150.484 274.403H149.601V275.286H150.484V274.403ZM181.677 274.403H182.56V273.52H181.677V274.403ZM181.677 310.232V311.115H182.56V310.232H181.677ZM150.484 310.232V309.349H149.601V310.232H150.484ZM113.392 451.861H112.509V452.744H113.392V451.861ZM113.392 310.232H114.274V309.349H113.392V310.232ZM76.2978 310.232V309.349H75.4149V310.232H76.2978ZM76.2978 430.996H77.1807V430.996H76.2978ZM55.6435 451.65V452.533V452.533V451.65ZM0.00385214 451.65H-0.879079V452.533H0.00385214V451.65ZM0.00385214 415.822V414.939H-0.879079V415.822H0.00385214ZM40.4687 415.822V416.705H41.3516V415.822H40.4687ZM40.4687 310.232H41.3516V309.349H40.4687V310.232ZM3.3769 310.232H2.49397V311.115H3.3769V310.232ZM3.3769 295.057L2.49397 295.057V295.057H3.3769ZM40.4687 274.403V275.286H41.3516V274.403H40.4687ZM40.4687 205.277H41.3516V204.394H40.4687V205.277ZM9.69916 205.277H8.81623V206.16H9.69916V205.277ZM9.69916 190.102L8.81623 190.102V190.102H9.69916ZM30.3525 169.448V168.565H30.3525L30.3525 169.448ZM178.304 169.448H179.187V168.565H178.304V169.448ZM76.2978 205.277V204.394H75.4149V205.277H76.2978ZM76.2978 274.403H75.4149V275.286H76.2978V274.403ZM113.392 274.403V275.286H114.274V274.403H113.392ZM113.392 205.277H114.274V204.394H113.392V205.277ZM178.304 205.277V204.394H150.484V205.277V206.16H178.304V205.277ZM150.484 205.277H149.601V274.403H150.484H151.367V205.277H150.484ZM150.484 274.403V275.286H181.677V274.403V273.52H150.484V274.403ZM181.677 274.403H180.794V310.232H181.677H182.56V274.403H181.677ZM181.677 310.232V309.349H150.484V310.232V311.115H181.677V310.232ZM150.484 310.232H149.601V431.206H150.484H151.367V310.232H150.484ZM150.484 431.206H149.601C149.601 442.126 140.749 450.978 129.83 450.978V451.861V452.744C141.725 452.744 151.367 443.101 151.367 431.206H150.484ZM129.83 451.861V450.978H113.392V451.861V452.744H129.83V451.861ZM113.392 451.861H114.274V310.232H113.392H112.509V451.861H113.392ZM113.392 310.232V309.349H76.2978V310.232V311.115H113.392V310.232ZM76.2978 310.232H75.4149V430.996H76.2978H77.1807V310.232H76.2978ZM76.2978 430.996H75.4149C75.4149 441.915 66.5628 450.767 55.6435 450.767V451.65V452.533C67.5381 452.533 77.1807 442.89 77.1807 430.996H76.2978ZM55.6435 451.65V450.767H0.00385214V451.65V452.533H55.6435V451.65ZM0.00385214 451.65H0.886783V415.822H0.00385214H-0.879079V451.65H0.00385214ZM0.00385214 415.822V416.705H40.4687V415.822V414.939H0.00385214V415.822ZM40.4687 415.822H41.3516V310.232H40.4687H39.5858V415.822H40.4687ZM40.4687 310.232V309.349H3.3769V310.232V311.115H40.4687V310.232ZM3.3769 310.232H4.25983V295.057H3.3769H2.49397V310.232H3.3769ZM3.3769 295.057L4.25983 295.057C4.2599 284.138 13.1119 275.286 24.0312 275.286V274.403V273.52C12.1367 273.52 2.49405 283.163 2.49397 295.057L3.3769 295.057ZM24.0312 274.403V275.286H40.4687V274.403V273.52H24.0312V274.403ZM40.4687 274.403H41.3516V205.277H40.4687H39.5858V274.403H40.4687ZM40.4687 205.277V204.394H9.69916V205.277V206.16H40.4687V205.277ZM9.69916 205.277H10.5821V190.102H9.69916H8.81623V205.277H9.69916ZM9.69916 190.102L10.5821 190.102C10.5822 179.183 19.4335 170.331 30.3525 170.331L30.3525 169.448L30.3525 168.565C18.4581 168.565 8.81636 178.208 8.81623 190.102L9.69916 190.102ZM30.3525 169.448V170.331H178.304V169.448V168.565H30.3525V169.448ZM178.304 169.448H177.421V205.277H178.304H179.187V169.448H178.304ZM76.2978 205.277H75.4149V274.403H76.2978H77.1807V205.277H76.2978ZM76.2978 274.403V275.286H113.392V274.403V273.52H76.2978V274.403ZM113.392 274.403H114.274V205.277H113.392H112.509V274.403H113.392ZM113.392 205.277V204.394H76.2978V205.277V206.16H113.392V205.277Z" fill="var(--stroke-0, #88797A)" mask="url(#path-1-inside-1_863_6123)"/>
</g>
<g id="Subtract">
<mask id="path-3-inside-2_863_6123" fill="white">
<path d="M429.525 422.355H522.258V407.603H547.971V427.414C547.97 438.821 538.723 448.069 527.316 448.069H424.468C413.061 448.069 403.814 438.821 403.813 427.414V376.832H429.525V422.355Z"/>
</mask>
<path d="M429.525 422.355H522.258V407.603H547.971V427.414C547.97 438.821 538.723 448.069 527.316 448.069H424.468C413.061 448.069 403.814 438.821 403.813 427.414V376.832H429.525V422.355Z" fill="var(--fill-0, #00E3E2)"/>
<path d="M429.525 422.355H428.642V423.238H429.525V422.355ZM522.258 422.355V423.238H523.141V422.355H522.258ZM522.258 407.603V406.72H521.375V407.603H522.258ZM547.971 407.603H548.854V406.72H547.971V407.603ZM547.971 427.414L548.854 427.414V427.414H547.971ZM527.316 448.069V448.952H527.316L527.316 448.069ZM403.813 427.414H402.93V427.414L403.813 427.414ZM403.813 376.832V375.949H402.93V376.832H403.813ZM429.525 376.832H430.408V375.949H429.525V376.832ZM429.525 422.355V423.238H522.258V422.355V421.472H429.525V422.355ZM522.258 422.355H523.141V407.603H522.258H521.375V422.355H522.258ZM522.258 407.603V408.486H547.971V407.603V406.72H522.258V407.603ZM547.971 407.603H547.088V427.414H547.971H548.854V407.603H547.971ZM547.971 427.414L547.088 427.414C547.087 438.333 538.235 447.186 527.316 447.186L527.316 448.069L527.316 448.952C539.211 448.951 548.853 439.309 548.854 427.414L547.971 427.414ZM527.316 448.069V447.186H424.468V448.069V448.952H527.316V448.069ZM424.468 448.069V447.186C413.548 447.186 404.696 438.334 404.696 427.414L403.813 427.414L402.93 427.414C402.931 439.309 412.573 448.952 424.468 448.952V448.069ZM403.813 427.414H404.696V376.832H403.813H402.93V427.414H403.813ZM403.813 376.832V377.715H429.525V376.832V375.949H403.813V376.832ZM429.525 376.832H428.642V422.355H429.525H430.408V376.832H429.525Z" fill="var(--stroke-0, #88797A)" mask="url(#path-3-inside-2_863_6123)"/>
</g>
<g id="Ellipse 70">
<mask id="path-5-inside-3_863_6123" fill="white">
<path d="M288.739 159.544C288.739 172.766 285.491 185.785 279.28 197.458C273.07 209.131 264.087 219.099 253.121 226.487C242.156 233.875 229.544 238.456 216.393 239.828C203.242 241.2 189.956 239.32 177.702 234.354L190.916 201.746C197.829 204.548 205.324 205.608 212.743 204.834C220.162 204.06 227.277 201.476 233.462 197.308C239.648 193.141 244.716 187.517 248.219 180.932C251.723 174.347 253.555 167.003 253.555 159.544H288.739Z"/>
</mask>
<path d="M288.739 159.544C288.739 172.766 285.491 185.785 279.28 197.458C273.07 209.131 264.087 219.099 253.121 226.487C242.156 233.875 229.544 238.456 216.393 239.828C203.242 241.2 189.956 239.32 177.702 234.354L190.916 201.746C197.829 204.548 205.324 205.608 212.743 204.834C220.162 204.06 227.277 201.476 233.462 197.308C239.648 193.141 244.716 187.517 248.219 180.932C251.723 174.347 253.555 167.003 253.555 159.544H288.739Z" fill="var(--fill-0, #00E3E2)" stroke="var(--stroke-0, #88797A)" stroke-width="1.76586" mask="url(#path-5-inside-3_863_6123)"/>
</g>
<g id="Ellipse 82">
<mask id="path-6-inside-4_863_6123" fill="white">
<path d="M288.739 250.168C288.739 263.39 285.491 276.41 279.28 288.083C273.07 299.755 264.087 309.724 253.121 317.112C242.156 324.5 229.544 329.081 216.393 330.452C203.242 331.824 189.956 329.944 177.702 324.978L190.916 292.371C197.829 295.172 205.324 296.233 212.743 295.459C220.162 294.685 227.277 292.101 233.462 287.933C239.648 283.765 244.716 278.142 248.219 271.557C251.723 264.972 253.555 257.627 253.555 250.168H288.739Z"/>
</mask>
<path d="M288.739 250.168C288.739 263.39 285.491 276.41 279.28 288.083C273.07 299.755 264.087 309.724 253.121 317.112C242.156 324.5 229.544 329.081 216.393 330.452C203.242 331.824 189.956 329.944 177.702 324.978L190.916 292.371C197.829 295.172 205.324 296.233 212.743 295.459C220.162 294.685 227.277 292.101 233.462 287.933C239.648 283.765 244.716 278.142 248.219 271.557C251.723 264.972 253.555 257.627 253.555 250.168H288.739Z" fill="var(--fill-0, #00E3E2)" stroke="var(--stroke-0, #88797A)" stroke-width="1.76586" mask="url(#path-6-inside-4_863_6123)"/>
</g>
<g id="Ellipse 83">
<mask id="path-7-inside-5_863_6123" fill="white">
<path d="M288.739 355.123C288.739 368.345 285.491 381.365 279.28 393.038C273.07 404.71 264.087 414.679 253.121 422.067C242.156 429.455 229.544 434.036 216.393 435.407C203.242 436.779 189.956 434.899 177.702 429.933L190.916 397.326C197.829 400.127 205.324 401.188 212.743 400.414C220.162 399.64 227.277 397.056 233.462 392.888C239.648 388.72 244.716 383.097 248.219 376.512C251.723 369.927 253.555 362.582 253.555 355.123H288.739Z"/>
</mask>
<path d="M288.739 355.123C288.739 368.345 285.491 381.365 279.28 393.038C273.07 404.71 264.087 414.679 253.121 422.067C242.156 429.455 229.544 434.036 216.393 435.407C203.242 436.779 189.956 434.899 177.702 429.933L190.916 397.326C197.829 400.127 205.324 401.188 212.743 400.414C220.162 399.64 227.277 397.056 233.462 392.888C239.648 388.72 244.716 383.097 248.219 376.512C251.723 369.927 253.555 362.582 253.555 355.123H288.739Z" fill="var(--fill-0, #00E3E2)" stroke="var(--stroke-0, #88797A)" stroke-width="1.76586" mask="url(#path-7-inside-5_863_6123)"/>
</g>
<g id="Ellipse 76">
<mask id="path-8-inside-6_863_6123" fill="white">
<path d="M391.888 385.227C380.756 412.215 359.976 434.764 333.081 449.041L317.145 422.772C337.552 411.94 353.318 394.831 361.765 374.354L391.888 385.227Z"/>
</mask>
<path d="M391.888 385.227C380.756 412.215 359.976 434.764 333.081 449.041L317.145 422.772C337.552 411.94 353.318 394.831 361.765 374.354L391.888 385.227Z" fill="var(--fill-0, #00E3E2)" stroke="var(--stroke-0, #88797A)" stroke-width="1.76586" mask="url(#path-8-inside-6_863_6123)"/>
</g>
<g id="Union_2">
<mask id="path-9-inside-7_863_6123" fill="white">
<path d="M525.794 173.015C521.558 176.726 518.432 181.296 516.693 186.318C514.954 191.341 514.656 196.662 515.825 201.81C516.217 203.539 516.772 205.231 517.479 206.869C535.551 195.675 549.521 179.475 557.366 160.456L584.519 170.257C575.367 192.445 559.691 211.631 539.46 225.688C544.472 227.233 549.819 227.802 555.124 227.345C561.085 226.83 566.81 225.036 571.791 222.12C576.772 219.204 580.855 215.257 583.679 210.628C586.503 205.999 587.981 200.832 587.981 195.583H621.313C621.313 205.634 618.484 215.53 613.076 224.395C607.668 233.259 599.848 240.817 590.309 246.401C580.77 251.985 569.807 255.423 558.39 256.408C546.973 257.393 535.455 255.896 524.856 252.05C514.257 248.203 504.905 242.126 497.627 234.356C490.35 226.587 485.37 217.365 483.132 207.507C480.894 197.649 481.466 187.459 484.796 177.841C488.127 168.223 494.112 159.472 502.224 152.365L525.794 173.015Z"/>
</mask>
<path d="M525.794 173.015C521.558 176.726 518.432 181.296 516.693 186.318C514.954 191.341 514.656 196.662 515.825 201.81C516.217 203.539 516.772 205.231 517.479 206.869C535.551 195.675 549.521 179.475 557.366 160.456L584.519 170.257C575.367 192.445 559.691 211.631 539.46 225.688C544.472 227.233 549.819 227.802 555.124 227.345C561.085 226.83 566.81 225.036 571.791 222.12C576.772 219.204 580.855 215.257 583.679 210.628C586.503 205.999 587.981 200.832 587.981 195.583H621.313C621.313 205.634 618.484 215.53 613.076 224.395C607.668 233.259 599.848 240.817 590.309 246.401C580.77 251.985 569.807 255.423 558.39 256.408C546.973 257.393 535.455 255.896 524.856 252.05C514.257 248.203 504.905 242.126 497.627 234.356C490.35 226.587 485.37 217.365 483.132 207.507C480.894 197.649 481.466 187.459 484.796 177.841C488.127 168.223 494.112 159.472 502.224 152.365L525.794 173.015Z" fill="var(--fill-0, #00E3E2)"/>
<path d="M525.794 173.015L526.376 173.679L527.134 173.015L526.376 172.351L525.794 173.015ZM516.693 186.318L515.859 186.029L515.859 186.029L516.693 186.318ZM515.825 201.81L514.964 202.005L514.964 202.005L515.825 201.81ZM517.479 206.869L516.668 207.219L517.074 208.159L517.944 207.62L517.479 206.869ZM557.366 160.456L557.666 159.626L556.871 159.339L556.55 160.119L557.366 160.456ZM584.519 170.257L585.335 170.594L585.687 169.74L584.819 169.426L584.519 170.257ZM539.459 225.688L538.956 224.962L537.467 225.997L539.199 226.531L539.459 225.688ZM555.124 227.345L555.199 228.224H555.199L555.124 227.345ZM571.791 222.12L572.237 222.882L572.237 222.882L571.791 222.12ZM583.679 210.628L584.433 211.088V211.088L583.679 210.628ZM587.981 195.583V194.7H587.098L587.098 195.583L587.981 195.583ZM621.313 195.583L622.196 195.583V194.7H621.313V195.583ZM613.076 224.395L613.829 224.854V224.854L613.076 224.395ZM590.309 246.401L590.755 247.163V247.163L590.309 246.401ZM558.39 256.408L558.466 257.288V257.288L558.39 256.408ZM524.856 252.05L524.555 252.88H524.555L524.856 252.05ZM497.627 234.356L496.983 234.96H496.983L497.627 234.356ZM483.132 207.507L482.271 207.702L482.271 207.702L483.132 207.507ZM484.796 177.841L483.962 177.552L483.962 177.552L484.796 177.841ZM502.224 152.365L502.806 151.701L502.224 151.191L501.642 151.701L502.224 152.365ZM525.794 173.015L525.213 172.351C520.868 176.157 517.651 180.853 515.859 186.029L516.693 186.318L517.527 186.607C519.213 181.738 522.248 177.295 526.376 173.679L525.794 173.015ZM516.693 186.318L515.859 186.029C514.066 191.207 513.758 196.696 514.964 202.005L515.825 201.81L516.686 201.614C515.554 196.628 515.842 191.475 517.527 186.607L516.693 186.318ZM515.825 201.81L514.964 202.005C515.369 203.788 515.94 205.532 516.668 207.219L517.479 206.869L518.29 206.519C517.604 204.93 517.066 203.29 516.686 201.614L515.825 201.81ZM517.479 206.869L517.944 207.62C536.167 196.333 550.263 179.991 558.182 160.793L557.366 160.456L556.55 160.119C548.778 178.96 534.936 195.018 517.014 206.119L517.479 206.869ZM557.366 160.456L557.066 161.287L584.219 171.087L584.519 170.257L584.819 169.426L557.666 159.626L557.366 160.456ZM584.519 170.257L583.703 169.92C574.618 191.945 559.054 210.998 538.956 224.962L539.459 225.688L539.963 226.413C560.328 212.263 576.116 192.945 585.335 170.594L584.519 170.257ZM539.459 225.688L539.199 226.531C544.322 228.111 549.783 228.692 555.199 228.224L555.124 227.345L555.048 226.465C549.855 226.913 544.623 226.356 539.72 224.844L539.459 225.688ZM555.124 227.345L555.199 228.224C561.287 227.699 567.138 225.867 572.237 222.882L571.791 222.12L571.344 221.358C566.481 224.205 560.883 225.961 555.048 226.465L555.124 227.345ZM571.791 222.12L572.237 222.882C577.335 219.897 581.528 215.849 584.433 211.088L583.679 210.628L582.925 210.168C580.182 214.664 576.208 218.511 571.344 221.358L571.791 222.12ZM583.679 210.628L584.433 211.088C587.338 206.325 588.864 200.999 588.864 195.583L587.981 195.583L587.098 195.583C587.098 200.664 585.668 205.673 582.925 210.168L583.679 210.628ZM587.981 195.583V196.466H621.313V195.583V194.7H587.981V195.583ZM621.313 195.583L620.43 195.583C620.43 205.466 617.648 215.204 612.322 223.935L613.076 224.395L613.829 224.854C619.319 215.856 622.196 205.802 622.196 195.583L621.313 195.583ZM613.076 224.395L612.322 223.935C606.995 232.666 599.284 240.124 589.863 245.639L590.309 246.401L590.755 247.163C600.411 241.51 608.341 233.851 613.829 224.854L613.076 224.395ZM590.309 246.401L589.863 245.639C580.442 251.155 569.605 254.554 558.314 255.529L558.39 256.408L558.466 257.288C570.009 256.292 581.099 252.816 590.755 247.163L590.309 246.401ZM558.39 256.408L558.314 255.529C547.023 256.503 535.633 255.022 525.157 251.22L524.856 252.05L524.555 252.88C535.276 256.771 546.924 258.284 558.466 257.288L558.39 256.408ZM524.856 252.05L525.157 251.22C514.681 247.418 505.449 241.415 498.272 233.753L497.627 234.356L496.983 234.96C504.361 242.837 513.833 248.989 524.555 252.88L524.856 252.05ZM497.627 234.356L498.272 233.753C491.095 226.091 486.195 217.008 483.993 207.311L483.132 207.507L482.271 207.702C484.546 217.721 489.604 227.082 496.983 234.96L497.627 234.356ZM483.132 207.507L483.993 207.311C481.792 197.615 482.354 187.593 485.631 178.13L484.796 177.841L483.962 177.552C480.578 187.325 479.996 197.682 482.271 207.702L483.132 207.507ZM484.796 177.841L485.631 178.13C488.908 168.665 494.802 160.042 502.806 153.029L502.224 152.365L501.642 151.701C493.422 158.903 487.345 167.78 483.962 177.552L484.796 177.841ZM502.224 152.365L501.642 153.029L525.213 173.679L525.794 173.015L526.376 172.351L502.806 151.701L502.224 152.365Z" fill="var(--stroke-0, #88797A)" mask="url(#path-9-inside-7_863_6123)"/>
</g>
<g id="Union_3">
<mask id="path-11-inside-8_863_6123" fill="white">
<path d="M525.795 278.391C521.559 282.102 518.432 286.671 516.693 291.694C514.954 296.716 514.656 302.037 515.825 307.185C516.218 308.915 516.772 310.607 517.479 312.246C535.552 301.052 549.521 284.852 557.366 265.833L584.518 275.633C575.366 297.821 559.691 317.007 539.46 331.064C544.472 332.61 549.818 333.179 555.123 332.721C561.084 332.207 566.81 330.412 571.791 327.496C576.772 324.58 580.855 320.632 583.679 316.003C586.503 311.375 587.98 306.207 587.98 300.959H621.313C621.313 311.01 618.484 320.906 613.076 329.77C607.668 338.634 599.848 346.194 590.309 351.778C580.771 357.362 569.807 360.799 558.39 361.784C546.973 362.769 535.455 361.272 524.856 357.425C514.257 353.579 504.904 347.502 497.627 339.733C490.349 331.963 485.371 322.74 483.133 312.882C480.895 303.025 481.467 292.836 484.797 283.217C488.127 273.599 494.112 264.848 502.224 257.741L525.795 278.391Z"/>
</mask>
<path d="M525.795 278.391C521.559 282.102 518.432 286.671 516.693 291.694C514.954 296.716 514.656 302.037 515.825 307.185C516.218 308.915 516.772 310.607 517.479 312.246C535.552 301.052 549.521 284.852 557.366 265.833L584.518 275.633C575.366 297.821 559.691 317.007 539.46 331.064C544.472 332.61 549.818 333.179 555.123 332.721C561.084 332.207 566.81 330.412 571.791 327.496C576.772 324.58 580.855 320.632 583.679 316.003C586.503 311.375 587.98 306.207 587.98 300.959H621.313C621.313 311.01 618.484 320.906 613.076 329.77C607.668 338.634 599.848 346.194 590.309 351.778C580.771 357.362 569.807 360.799 558.39 361.784C546.973 362.769 535.455 361.272 524.856 357.425C514.257 353.579 504.904 347.502 497.627 339.733C490.349 331.963 485.371 322.74 483.133 312.882C480.895 303.025 481.467 292.836 484.797 283.217C488.127 273.599 494.112 264.848 502.224 257.741L525.795 278.391Z" fill="var(--fill-0, #00E3E2)"/>
<path d="M525.795 278.391L526.376 279.055L527.134 278.391L526.376 277.727L525.795 278.391ZM516.693 291.694L515.859 291.405L515.859 291.405L516.693 291.694ZM515.825 307.185L514.964 307.381L514.964 307.381L515.825 307.185ZM517.479 312.246L516.669 312.596L517.074 313.535L517.944 312.996L517.479 312.246ZM557.366 265.833L557.666 265.002L556.872 264.715L556.55 265.496L557.366 265.833ZM584.518 275.633L585.334 275.97L585.687 275.116L584.818 274.803L584.518 275.633ZM539.46 331.064L538.956 330.339L537.467 331.374L539.2 331.908L539.46 331.064ZM555.123 332.721L555.199 333.601H555.199L555.123 332.721ZM571.791 327.496L572.237 328.258V328.258L571.791 327.496ZM583.679 316.003L584.433 316.463L584.433 316.463L583.679 316.003ZM587.98 300.959V300.076H587.097V300.959H587.98ZM621.313 300.959H622.196V300.076H621.313V300.959ZM613.076 329.77L613.83 330.23L613.83 330.23L613.076 329.77ZM590.309 351.778L590.755 352.54V352.54L590.309 351.778ZM558.39 361.784L558.466 362.663V362.663L558.39 361.784ZM524.856 357.425L524.555 358.255H524.555L524.856 357.425ZM497.627 339.733L496.982 340.337V340.337L497.627 339.733ZM483.133 312.882L482.271 313.078L482.271 313.078L483.133 312.882ZM484.797 283.217L483.962 282.928L483.962 282.928L484.797 283.217ZM502.224 257.741L502.806 257.077L502.224 256.567L501.642 257.077L502.224 257.741ZM525.795 278.391L525.213 277.727C520.869 281.533 517.651 286.229 515.859 291.405L516.693 291.694L517.527 291.983C519.213 287.114 522.249 282.672 526.376 279.055L525.795 278.391ZM516.693 291.694L515.859 291.405C514.066 296.582 513.758 302.071 514.964 307.381L515.825 307.185L516.686 306.99C515.554 302.004 515.842 296.851 517.527 291.983L516.693 291.694ZM515.825 307.185L514.964 307.381C515.369 309.164 515.94 310.908 516.669 312.596L517.479 312.246L518.29 311.896C517.604 310.306 517.066 308.666 516.686 306.99L515.825 307.185ZM517.479 312.246L517.944 312.996C536.167 301.709 550.263 285.367 558.182 266.169L557.366 265.833L556.55 265.496C548.778 284.336 534.936 300.395 517.014 311.495L517.479 312.246ZM557.366 265.833L557.066 266.663L584.218 276.464L584.518 275.633L584.818 274.803L557.666 265.002L557.366 265.833ZM584.518 275.633L583.702 275.297C574.617 297.321 559.054 316.375 538.956 330.339L539.46 331.064L539.963 331.789C560.329 317.64 576.115 298.321 585.334 275.97L584.518 275.633ZM539.46 331.064L539.2 331.908C544.322 333.487 549.782 334.068 555.199 333.601L555.123 332.721L555.047 331.842C549.855 332.29 544.623 331.732 539.72 330.22L539.46 331.064ZM555.123 332.721L555.199 333.601C561.286 333.076 567.139 331.242 572.237 328.258L571.791 327.496L571.345 326.734C566.481 329.581 560.883 331.338 555.047 331.842L555.123 332.721ZM571.791 327.496L572.237 328.258C577.335 325.273 581.528 321.225 584.433 316.463L583.679 316.003L582.926 315.544C580.183 320.04 576.208 323.887 571.345 326.734L571.791 327.496ZM583.679 316.003L584.433 316.463C587.339 311.701 588.863 306.375 588.863 300.959H587.98H587.097C587.097 306.039 585.668 311.049 582.926 315.544L583.679 316.003ZM587.98 300.959V301.841H621.313V300.959V300.076H587.98V300.959ZM621.313 300.959H620.43C620.43 310.842 617.648 320.58 612.322 329.31L613.076 329.77L613.83 330.23C619.319 321.232 622.196 311.177 622.196 300.959H621.313ZM613.076 329.77L612.322 329.31C606.995 338.042 599.284 345.501 589.863 351.016L590.309 351.778L590.755 352.54C600.412 346.887 608.341 339.227 613.83 330.23L613.076 329.77ZM590.309 351.778L589.863 351.016C580.442 356.531 569.606 359.93 558.314 360.904L558.39 361.784L558.466 362.663C570.009 361.667 581.099 358.193 590.755 352.54L590.309 351.778ZM558.39 361.784L558.314 360.904C547.023 361.878 535.634 360.397 525.157 356.595L524.856 357.425L524.555 358.255C535.276 362.146 546.924 363.659 558.466 362.663L558.39 361.784ZM524.856 357.425L525.157 356.595C514.681 352.793 505.448 346.791 498.271 339.129L497.627 339.733L496.982 340.337C504.361 348.214 513.834 354.364 524.555 358.255L524.856 357.425ZM497.627 339.733L498.271 339.129C491.094 331.468 486.195 322.384 483.994 312.687L483.133 312.882L482.271 313.078C484.546 323.097 489.603 332.459 496.982 340.337L497.627 339.733ZM483.133 312.882L483.994 312.687C481.792 302.991 482.354 292.97 485.631 283.506L484.797 283.217L483.962 282.928C480.579 292.701 479.997 303.058 482.271 313.078L483.133 312.882ZM484.797 283.217L485.631 283.506C488.908 274.041 494.802 265.417 502.806 258.405L502.224 257.741L501.642 257.077C493.422 264.279 487.346 273.157 483.962 282.928L484.797 283.217ZM502.224 257.741L501.642 258.405L525.213 279.055L525.795 278.391L526.376 277.727L502.806 257.077L502.224 257.741Z" fill="var(--stroke-0, #88797A)" mask="url(#path-11-inside-8_863_6123)"/>
</g>
<g id="Union_4">
<mask id="path-13-inside-9_863_6123" fill="white">
<path d="M460.288 343.952C460.288 345.684 460.073 347.368 459.671 348.976C478.348 355.903 495.219 366.713 508.944 380.702L485.156 401.125C470.555 386.243 451.263 376.103 430.082 372.176L431.685 364.605H397.999C395.898 361.367 394.878 357.799 395.032 354.202C395.197 350.351 396.701 346.596 399.4 343.3C402.099 340.005 405.901 337.279 410.438 335.388C414.975 333.497 420.096 332.503 425.304 332.503V316.553C416.389 316.553 407.623 318.254 399.856 321.492C392.088 324.729 385.58 329.394 380.96 335.036C376.341 340.677 373.766 347.104 373.484 353.697C373.326 357.387 373.89 361.061 375.141 364.605H339.735V233.936H460.288V343.952ZM373.036 301.801H425.303V290.841H373.036V301.801ZM373.036 269.767H425.303V258.808H373.036V269.767Z"/>
</mask>
<path d="M460.288 343.952C460.288 345.684 460.073 347.368 459.671 348.976C478.348 355.903 495.219 366.713 508.944 380.702L485.156 401.125C470.555 386.243 451.263 376.103 430.082 372.176L431.685 364.605H397.999C395.898 361.367 394.878 357.799 395.032 354.202C395.197 350.351 396.701 346.596 399.4 343.3C402.099 340.005 405.901 337.279 410.438 335.388C414.975 333.497 420.096 332.503 425.304 332.503V316.553C416.389 316.553 407.623 318.254 399.856 321.492C392.088 324.729 385.58 329.394 380.96 335.036C376.341 340.677 373.766 347.104 373.484 353.697C373.326 357.387 373.89 361.061 375.141 364.605H339.735V233.936H460.288V343.952ZM373.036 301.801H425.303V290.841H373.036V301.801ZM373.036 269.767H425.303V258.808H373.036V269.767Z" fill="var(--fill-0, #00E3E2)"/>
<path d="M460.288 343.952L461.171 343.952V343.952H460.288ZM459.671 348.976L458.815 348.762L458.623 349.529L459.364 349.804L459.671 348.976ZM508.944 380.702L509.519 381.372L510.235 380.758L509.574 380.084L508.944 380.702ZM485.156 401.125L484.525 401.744L485.104 402.333L485.731 401.795L485.156 401.125ZM430.082 372.176L429.218 371.993L429.03 372.879L429.921 373.044L430.082 372.176ZM431.685 364.605L432.549 364.788L432.775 363.722H431.685V364.605ZM397.999 364.605L397.258 365.085L397.519 365.488H397.999V364.605ZM395.032 354.202L394.15 354.164V354.164L395.032 354.202ZM399.4 343.3L398.717 342.741L398.717 342.741L399.4 343.3ZM410.438 335.388L410.098 334.573L410.098 334.573L410.438 335.388ZM425.304 332.503L425.304 333.386L426.187 333.386V332.503H425.304ZM425.304 316.553H426.187V315.67H425.304L425.304 316.553ZM399.856 321.492L399.516 320.677L399.516 320.677L399.856 321.492ZM380.96 335.036L380.277 334.476L380.277 334.476L380.96 335.036ZM373.484 353.697L372.602 353.659V353.659L373.484 353.697ZM375.141 364.605V365.488H376.389L375.974 364.311L375.141 364.605ZM339.735 364.605H338.852V365.488H339.735V364.605ZM339.735 233.936V233.053H338.852V233.936H339.735ZM460.288 233.936H461.171V233.053H460.288V233.936ZM373.036 301.801H372.153V302.684H373.036V301.801ZM425.303 301.801V302.684H426.186V301.801H425.303ZM425.303 290.841H426.186V289.958H425.303V290.841ZM373.036 290.841V289.958H372.153V290.841H373.036ZM373.036 269.767H372.153V270.65H373.036V269.767ZM425.303 269.767V270.65H426.186V269.767H425.303ZM425.303 258.808H426.186V257.925H425.303V258.808ZM373.036 258.808V257.925H372.153V258.808H373.036ZM460.288 343.952L459.405 343.951C459.405 345.611 459.2 347.223 458.815 348.762L459.671 348.976L460.528 349.19C460.947 347.512 461.17 345.757 461.171 343.952L460.288 343.952ZM459.671 348.976L459.364 349.804C477.923 356.687 494.682 367.427 508.314 381.321L508.944 380.702L509.574 380.084C495.755 365.999 478.773 355.119 459.978 348.148L459.671 348.976ZM508.944 380.702L508.369 380.033L484.581 400.455L485.156 401.125L485.731 401.795L509.519 381.372L508.944 380.702ZM485.156 401.125L485.786 400.507C471.054 385.491 451.596 375.266 430.242 371.308L430.082 372.176L429.921 373.044C450.93 376.939 470.057 386.996 484.525 401.744L485.156 401.125ZM430.082 372.176L430.945 372.359L432.549 364.788L431.685 364.605L430.821 364.422L429.218 371.993L430.082 372.176ZM431.685 364.605V363.722H397.999V364.605V365.488H431.685V364.605ZM397.999 364.605L398.739 364.124C396.731 361.028 395.768 357.639 395.914 354.239L395.032 354.202L394.15 354.164C393.987 357.958 395.066 361.706 397.258 365.085L397.999 364.605ZM395.032 354.202L395.914 354.239C396.07 350.599 397.492 347.024 400.083 343.86L399.4 343.3L398.717 342.741C395.911 346.168 394.324 350.102 394.15 354.164L395.032 354.202ZM399.4 343.3L400.083 343.86C402.677 340.692 406.353 338.047 410.778 336.203L410.438 335.388L410.098 334.573C405.448 336.511 401.52 339.317 398.717 342.741L399.4 343.3ZM410.438 335.388L410.778 336.203C415.201 334.359 420.206 333.386 425.304 333.386L425.304 332.503L425.304 331.62C419.987 331.62 414.75 332.634 410.098 334.573L410.438 335.388ZM425.304 332.503H426.187V316.553H425.304H424.421V332.503H425.304ZM425.304 316.553L425.304 315.67C416.279 315.67 407.398 317.392 399.516 320.677L399.856 321.492L400.196 322.307C407.849 319.117 416.499 317.436 425.304 317.436L425.304 316.553ZM399.856 321.492L399.516 320.677C391.636 323.961 385.002 328.707 380.277 334.476L380.96 335.036L381.644 335.595C386.158 330.082 392.541 325.497 400.196 322.307L399.856 321.492ZM380.96 335.036L380.277 334.476C375.55 340.249 372.893 346.856 372.602 353.659L373.484 353.697L374.366 353.734C374.639 347.353 377.132 341.105 381.644 335.595L380.96 335.036ZM373.484 353.697L372.602 353.659C372.439 357.466 373.021 361.252 374.309 364.899L375.141 364.605L375.974 364.311C374.759 360.87 374.213 357.309 374.366 353.734L373.484 353.697ZM375.141 364.605V363.722H339.735V364.605V365.488H375.141V364.605ZM339.735 364.605H340.618V233.936H339.735H338.852V364.605H339.735ZM339.735 233.936V234.819H460.288V233.936V233.053H339.735V233.936ZM460.288 233.936H459.405V343.952H460.288H461.171V233.936H460.288ZM373.036 301.801V302.684H425.303V301.801V300.918H373.036V301.801ZM425.303 301.801H426.186V290.841H425.303H424.42V301.801H425.303ZM425.303 290.841V289.958H373.036V290.841V291.724H425.303V290.841ZM373.036 290.841H372.153V301.801H373.036H373.919V290.841H373.036ZM373.036 269.767V270.65H425.303V269.767V268.884H373.036V269.767ZM425.303 269.767H426.186V258.808H425.303H424.42V269.767H425.303ZM425.303 258.808V257.925H373.036V258.808V259.691H425.303V258.808ZM373.036 258.808H372.153V269.767H373.036H373.919V258.808H373.036Z" fill="var(--stroke-0, #88797A)" mask="url(#path-13-inside-9_863_6123)"/>
</g>
<g id="Union_5">
<mask id="path-15-inside-10_863_6123" fill="white">
<path d="M397.066 153.221C397.066 164.957 394.505 176.533 389.586 187.151H419.606C416.728 185.872 413.723 184.858 410.627 184.132L417.521 154.759C433.287 158.459 447.575 166.816 458.529 178.744C469.483 190.672 476.597 205.618 478.944 221.641L449.092 226.016C448.942 224.996 448.76 223.984 448.55 222.979H322.879V187.151H353.134C356.045 183.995 358.548 180.466 360.572 176.643C364.394 169.428 366.392 161.386 366.392 153.221H397.066Z"/>
</mask>
<path d="M397.066 153.221C397.066 164.957 394.505 176.533 389.586 187.151H419.606C416.728 185.872 413.723 184.858 410.627 184.132L417.521 154.759C433.287 158.459 447.575 166.816 458.529 178.744C469.483 190.672 476.597 205.618 478.944 221.641L449.092 226.016C448.942 224.996 448.76 223.984 448.55 222.979H322.879V187.151H353.134C356.045 183.995 358.548 180.466 360.572 176.643C364.394 169.428 366.392 161.386 366.392 153.221H397.066Z" fill="var(--fill-0, #00E3E2)"/>
<path d="M397.066 153.221H397.949V152.338H397.066V153.221ZM389.586 187.151L388.785 186.78L388.204 188.034H389.586V187.151ZM419.606 187.151V188.034L419.965 186.344L419.606 187.151ZM410.627 184.132L409.767 183.93L409.565 184.79L410.425 184.991L410.627 184.132ZM417.521 154.759L417.723 153.899L416.864 153.697L416.662 154.557L417.521 154.759ZM458.529 178.744L459.179 178.147L459.179 178.147L458.529 178.744ZM478.944 221.641L479.072 222.515L479.946 222.387L479.818 221.513L478.944 221.641ZM449.092 226.016L448.218 226.143L448.346 227.017L449.22 226.889L449.092 226.016ZM448.55 222.979L449.414 222.798L449.267 222.096H448.55V222.979ZM322.879 222.979H321.996V223.862H322.879V222.979ZM322.879 187.151V186.268H321.996V187.151H322.879ZM353.134 187.151V188.034H353.52L353.783 187.75L353.134 187.151ZM360.572 176.643L361.352 177.057V177.057L360.572 176.643ZM366.392 153.221V152.338H365.51V153.221H366.392ZM397.066 153.221H396.183C396.183 164.828 393.65 176.278 388.785 186.78L389.586 187.151L390.387 187.522C395.36 176.788 397.949 165.085 397.949 153.221H397.066ZM389.586 187.151V188.034H419.606V187.151V186.268H389.586V187.151ZM419.606 187.151L419.965 186.344C417.036 185.043 413.979 184.011 410.829 183.272L410.627 184.132L410.425 184.991C413.467 185.705 416.42 186.701 419.248 187.958L419.606 187.151ZM410.627 184.132L411.486 184.333L418.381 154.96L417.521 154.759L416.662 154.557L409.767 183.93L410.627 184.132ZM417.521 154.759L417.32 155.618C432.913 159.278 447.045 167.544 457.879 179.341L458.529 178.744L459.179 178.147C448.106 166.089 433.661 157.64 417.723 153.899L417.521 154.759ZM458.529 178.744L457.879 179.341C468.713 191.138 475.749 205.922 478.071 221.769L478.944 221.641L479.818 221.513C477.445 205.315 470.253 190.205 459.179 178.147L458.529 178.744ZM478.944 221.641L478.816 220.768L448.964 225.142L449.092 226.016L449.22 226.889L479.072 222.515L478.944 221.641ZM449.092 226.016L449.965 225.888C449.813 224.849 449.628 223.819 449.414 222.798L448.55 222.979L447.686 223.16C447.892 224.148 448.071 225.143 448.218 226.143L449.092 226.016ZM448.55 222.979V222.096H322.879V222.979V223.862H448.55V222.979ZM322.879 222.979H323.762V187.151H322.879H321.996V222.979H322.879ZM322.879 187.151V188.034H353.134V187.151V186.268H322.879V187.151ZM353.134 187.151L353.783 187.75C356.745 184.538 359.292 180.946 361.352 177.057L360.572 176.643L359.792 176.23C357.803 179.985 355.344 183.452 352.485 186.553L353.134 187.151ZM360.572 176.643L361.352 177.057C365.241 169.714 367.275 161.53 367.275 153.221H366.392H365.51C365.51 161.242 363.546 169.142 359.792 176.23L360.572 176.643ZM366.392 153.221V154.104H397.066V153.221V152.338H366.392V153.221Z" fill="var(--stroke-0, #88797A)" mask="url(#path-15-inside-10_863_6123)"/>
</g>
<path id="Ellipse 75" d="M553.155 370.687C568.664 374.417 582.716 382.681 593.51 394.435C604.305 406.189 611.345 420.892 613.744 436.662L584.765 440.908C583.218 430.951 578.758 421.673 571.939 414.247C565.119 406.821 556.252 401.588 546.462 399.2L553.155 370.687Z" fill="var(--fill-0, #00E3E2)" stroke="var(--stroke-0, #88797A)" stroke-width="0.882931"/>
</g>
</svg>
