<svg preserveAspectRatio="none" width="100%" height="100%" overflow="visible" style="display: block;" viewBox="0 0 1543.02 1356.69" fill="none" xmlns="http://www.w3.org/2000/svg" xmlns:xlink="http://www.w3.org/1999/xlink">
<g id="Frame 335">
<g id="Frame 334">
<path id="Vector 3" d="M570.383 156.341L855.635 236.459C718.409 374.901 441.034 624.482 429.344 515.267C417.654 406.051 520.405 219.367 570.383 156.341Z" fill="var(--fill-0, #FF0226)"/>
<path id="Ellipse 54" d="M1209.78 361.211C1168.77 314.427 1119.01 276.228 1063.34 248.793C1007.66 221.358 947.158 205.225 885.284 201.316C823.411 197.407 761.378 205.797 702.727 226.009C644.077 246.221 589.957 277.857 543.459 319.113C496.96 360.368 458.993 410.435 431.726 466.453C404.458 522.472 388.424 583.345 384.539 645.598C380.653 707.852 388.993 770.265 409.081 829.276C429.17 888.286 460.613 942.738 501.617 989.522L771.057 750.464C761.255 739.28 753.738 726.264 748.936 712.158C744.134 698.052 742.141 683.132 743.07 668.251C743.999 653.369 747.831 638.818 754.35 625.427C760.868 612.036 769.943 600.068 781.059 590.206C792.174 580.344 805.111 572.782 819.131 567.95C833.151 563.119 847.98 561.113 862.77 562.047C877.561 562.982 892.023 566.838 905.333 573.397C918.642 579.955 930.537 589.086 940.339 600.27L1209.78 361.211Z" fill="var(--fill-0, #0C0C0C)"/>
<g id="Frame 336">
<path id="Ellipse 60" d="M1209.78 361.211C1168.77 314.427 1119.01 276.227 1063.34 248.792C1007.66 221.357 947.158 205.224 885.285 201.315C823.411 197.406 761.378 205.797 702.728 226.008C644.077 246.22 589.958 277.857 543.459 319.112C496.961 360.368 458.994 410.434 431.726 466.452C404.459 522.471 388.424 583.345 384.539 645.598C380.654 707.851 388.993 770.265 409.082 829.275C429.17 888.286 460.614 942.737 501.618 989.521L771.057 750.463C761.255 739.28 753.739 726.263 748.937 712.157C744.135 698.051 742.141 683.131 743.07 668.25C743.999 653.369 747.832 638.817 754.35 625.426C760.868 612.036 769.944 600.067 781.059 590.206C792.174 580.344 805.111 572.781 819.131 567.95C833.151 563.118 847.98 561.112 862.771 562.047C877.561 562.981 892.024 566.838 905.333 573.396C918.642 579.954 930.537 589.086 940.339 600.269L1209.78 361.211Z" fill="var(--fill-0, #DFFF87)"/>
<path id="Ellipse 61" d="M1209.78 361.211C1168.77 314.427 1119.01 276.227 1063.34 248.792C1007.66 221.357 947.158 205.224 885.285 201.315C823.411 197.406 761.378 205.797 702.728 226.008C644.077 246.22 589.958 277.857 543.459 319.112C496.961 360.368 458.994 410.434 431.726 466.452C404.459 522.471 388.424 583.345 384.539 645.598C380.654 707.851 388.993 770.265 409.082 829.275C429.17 888.286 460.614 942.737 501.618 989.521L771.057 750.463C761.255 739.28 753.739 726.263 748.937 712.157C744.135 698.051 742.141 683.131 743.07 668.25C743.999 653.369 747.832 638.817 754.35 625.426C760.868 612.036 769.944 600.067 781.059 590.206C792.174 580.344 805.111 572.781 819.131 567.95C833.151 563.118 847.98 561.112 862.771 562.047C877.561 562.981 892.024 566.838 905.333 573.396C918.642 579.954 930.537 589.086 940.339 600.269L1209.78 361.211Z" fill="url(#pattern0_852_5942)"/>
</g>
<path id="Vector 2 (Stroke)" d="M1239.42 556.028C1246.06 555.714 1255.43 555.42 1265.19 558.767C1274.4 561.92 1284.81 568.607 1293.03 584.158C1300.87 598.981 1300.49 611.829 1298.17 627.934C1295.92 643.597 1291.08 664.715 1295.77 688.43C1300.68 713.261 1314.64 730.645 1328.08 741.798C1334.79 747.368 1341.51 751.506 1347.22 754.393C1352.59 757.103 1358.04 759.202 1362.29 759.948L1367.97 727.58C1368.3 727.638 1366.14 727.133 1362.04 725.061C1358.29 723.165 1353.68 720.342 1349.06 716.509C1339.84 708.855 1331.1 697.667 1328.01 682.056C1324.7 665.328 1327.98 651.504 1330.7 632.615C1333.36 614.169 1334.81 592.854 1322.08 568.795C1309.74 545.462 1292.53 533.396 1275.84 527.678C1259.72 522.154 1244.91 522.87 1237.87 523.202L1239.42 556.028Z" fill="var(--fill-0, #FF0226)"/>
<circle id="Ellipse 22" cx="1132.61" cy="393.676" r="107.107" transform="rotate(-19.7822 1132.61 393.676)" fill="var(--fill-0, #FF0226)"/>
<circle id="Ellipse 23" cx="1116.8" cy="409.065" r="87.0243" transform="rotate(-19.7822 1116.8 409.065)" fill="var(--fill-0, #F6F0E7)"/>
<circle id="Ellipse 24" cx="1116.8" cy="409.064" r="46.8593" transform="rotate(-19.7822 1116.8 409.064)" fill="var(--fill-0, #161615)"/>
<path id="Vector 1" d="M1243.71 596.014C1230.59 599.921 1197.41 610.078 1190.85 653.571C1184.28 697.064 1216.88 716.849 1222.69 757.662C1228.51 798.475 1198.72 826.599 1191.78 830.486" stroke="var(--stroke-0, #FF0226)" stroke-width="32.8623"/>
<path id="Intersect" d="M1057.84 245.826C1157.81 291.485 1240.01 375.83 1280.15 487.419C1295.91 531.238 1303.73 580.834 1272.05 599.889C1187.06 651.003 958.227 678.208 901.476 572.025C838.027 453.312 976.809 259.103 1057.84 245.826Z" fill="var(--fill-0, #FF0226)"/>
<circle id="Ellipse 25" cx="1240.17" cy="547.071" r="9.12843" transform="rotate(-19.7822 1240.17 547.071)" fill="var(--fill-0, #161615)"/>
<path id="Subtract_2" d="M501.819 987.576C501.74 988.19 501.661 988.804 501.585 989.419C484.398 1129.39 583.939 1256.8 723.913 1273.98L755.033 1020.54L501.593 989.421L501.819 987.576Z" fill="var(--fill-0, #FF0226)"/>
</g>
<path id="Intersect_2" d="M1338.34 705.275C1341.59 709.652 1345.29 713.376 1349.06 716.509C1353.68 720.341 1358.28 723.166 1362.04 725.061C1366.14 727.132 1368.29 727.637 1367.97 727.581L1362.28 759.947C1358.04 759.202 1352.58 757.103 1347.22 754.392C1344.45 752.996 1341.46 751.304 1338.34 749.302V705.275Z" fill="var(--fill-0, #FF0226)"/>
<g id="Subtract_3">
<path d="M126.318 994.12C126.318 994.081 126.317 994.04 126.317 994.001C126.317 993.961 126.318 993.921 126.318 993.881V994.12Z" fill="var(--fill-0, #FF0226)"/>
<path d="M1057.84 245.827C1082.56 257.118 1106.2 270.776 1128.38 286.626C1173.84 284.817 1217.18 312.341 1233.4 357.428C1238.91 372.77 1240.71 388.543 1239.26 403.765C1255.6 429.545 1269.39 457.503 1280.15 487.42C1281.46 491.078 1282.72 494.776 1283.91 498.494H885.412C888.331 386.737 991.604 257.216 1057.37 245.906C1057.53 245.879 1057.68 245.853 1057.84 245.827Z" fill="var(--fill-0, #FF0226)"/>
<path d="M761.32 209.971C741.509 214.038 721.935 219.39 702.725 226.01C644.075 246.222 589.955 277.859 543.457 319.114C496.958 360.369 458.991 410.436 431.724 466.454C431.197 467.537 430.673 468.622 430.154 469.709C443.21 360.075 526.83 211.262 570.38 156.343L761.32 209.971Z" fill="var(--fill-0, #FF0226)"/>
</g>
<circle id="Ellipse 61_2" cx="1132.61" cy="393.677" r="107.107" transform="rotate(-19.7822 1132.61 393.677)" fill="var(--fill-0, #FF0226)"/>
<circle id="Ellipse 62" cx="1116.8" cy="409.066" r="87.0243" transform="rotate(-19.7822 1116.8 409.066)" fill="var(--fill-0, #F6F0E7)"/>
<circle id="Ellipse 63" cx="1116.8" cy="409.065" r="46.8593" transform="rotate(-19.7822 1116.8 409.065)" fill="var(--fill-0, #161615)"/>
</g>
<defs>
<pattern id="pattern0_852_5942" patternUnits="userSpaceOnUse" patternTransform="matrix(245.981 0 0 169.727 794.203 552.375)" preserveAspectRatio="none" viewBox="0 0 90 62.1" width="1" height="1">
<use xlink:href="#pattern0_852_5942_inner" transform="translate(0 -124.2)"/>
<use xlink:href="#pattern0_852_5942_inner" transform="translate(45 -93.15)"/>
<use xlink:href="#pattern0_852_5942_inner" transform="translate(0 -62.1)"/>
<use xlink:href="#pattern0_852_5942_inner" transform="translate(45 -31.05)"/>
<g id="pattern0_852_5942_inner">
<g id="Frame 310" style="mix-blend-mode:color-burn">
<path id="Subtract" d="M45 0C20.1472 0 0 20.1472 0 45C0 69.8528 20.1472 90 45 90V0Z" fill="var(--fill-0, #FF6D50)"/>
</g>
</g>
<use xlink:href="#pattern0_852_5942_inner" transform="translate(45 31.05)"/>
</pattern></defs>
</svg>
