<svg preserveAspectRatio="none" width="100%" height="100%" overflow="visible" style="display: block;" viewBox="0 0 402 402" fill="none" xmlns="http://www.w3.org/2000/svg">
<g id="Frame 348">
<g clip-path="url(#clip0_852_5929)">
<rect id="Rectangle 83" width="402" height="402" fill="var(--fill-0, #161616)"/>
<g id="Frame 326">
<circle id="Ellipse 27" cx="225.235" cy="135.421" r="89.4209" fill="var(--fill-0, #DFFF87)"/>
<path id="Subtract" d="M334.93 224.842C334.93 194.85 311.103 170.537 281.712 170.537C252.32 170.537 228.493 194.85 228.493 224.842H334.93Z" fill="var(--fill-0, #DFFF87)"/>
</g>
<path id="Ellipse 34" d="M185.232 124.998C214.319 138.763 236.746 163.518 247.58 193.819C258.415 224.119 256.768 257.482 243.004 286.569C229.239 315.655 204.484 338.082 174.183 348.917C143.883 359.751 110.52 358.105 81.4333 344.34L98.1414 309.034C117.864 318.367 140.487 319.483 161.032 312.137C181.578 304.79 198.364 289.583 207.697 269.861C217.031 250.138 218.147 227.515 210.801 206.97C203.454 186.424 188.247 169.638 168.524 160.305L185.232 124.998Z" fill="var(--fill-0, #FC3930)"/>
<g id="Frame 327">
<ellipse id="Ellipse 48" cx="226.737" cy="134.336" rx="16.7498" ry="12.4117" fill="var(--fill-0, black)"/>
<ellipse id="Ellipse 49" cx="226.737" cy="159.16" rx="16.7498" ry="12.4117" fill="var(--fill-0, black)"/>
<ellipse id="Ellipse 46" cx="210.102" cy="148.314" rx="16.7498" ry="26.39" fill="var(--fill-0, white)"/>
<ellipse id="Ellipse 47" cx="243.604" cy="148.314" rx="16.7498" ry="26.39" fill="var(--fill-0, white)"/>
</g>
</g>
<rect x="0.5" y="0.5" width="401" height="401" stroke="var(--stroke-0, #FF6D50)"/>
</g>
<defs>
<clipPath id="clip0_852_5929">
<rect width="402" height="402" fill="white"/>
</clipPath>
</defs>
</svg>
