<svg preserveAspectRatio="none" width="100%" height="100%" overflow="visible" style="display: block;" viewBox="0 0 402 402" fill="none" xmlns="http://www.w3.org/2000/svg">
<g id="Frame 345">
<g clip-path="url(#clip0_852_5916)">
<rect id="Rectangle 77" width="402" height="402" fill="var(--fill-0, #161616)"/>
<g id="Frame 328">
<circle id="Ellipse 23" cx="38.538" cy="38.538" r="38.538" transform="matrix(-1 0 0 1 157.197 60.0009)" fill="var(--fill-0, #F6F0E7)"/>
<circle id="Ellipse 24" cx="20.7512" cy="20.7512" r="20.7512" transform="matrix(-1 0 0 1 139.41 77.7877)" fill="var(--fill-0, #161615)"/>
</g>
<path id="Subtract" d="M82.5164 242.018C80.5989 186.58 128.046 139.943 188.492 137.852C273.975 134.896 195.436 338.613 195.436 338.613C134.989 340.704 84.4339 297.457 82.5164 242.018Z" fill="var(--fill-0, #00E3E2)"/>
<path id="Subtract_2" d="M78.4779 242.349L78.4729 242.207L187.92 238.421L191.392 338.8C251.837 336.708 299.284 290.072 297.366 234.634L78.4719 242.205C78.4735 242.253 78.4761 242.301 78.4779 242.349ZM184.604 138.034C184.552 138.036 184.5 138.037 184.447 138.039C184.395 138.041 184.342 138.043 184.29 138.045L184.604 138.034Z" fill="var(--fill-0, #FF0226)"/>
<path id="Vector 1" d="M179.13 171.32C170.508 169.171 161.885 167.021 153.263 164.872C154.399 161.17 155.823 156.892 157.615 152.844C165.873 131.731 188.16 116.093 209.099 114.005C246.538 107.657 269.111 138.098 296.812 141.165C314.151 144.168 332.88 137.875 346.806 125.642C349.575 123.174 352.308 120.555 354.312 117.419C352.688 120.788 350.25 123.758 347.743 126.59C335.187 140.588 316.182 150.125 296.043 149.114C263.42 147.835 237.765 123.03 212.709 132.291C196.457 136.445 185.432 147.13 181.28 161.866C180.389 164.825 179.769 167.795 179.13 171.32Z" fill="var(--stroke-0, #00E3E2)"/>
</g>
<rect x="0.5" y="0.5" width="401" height="401" stroke="var(--stroke-0, #FF6D50)"/>
</g>
<defs>
<clipPath id="clip0_852_5916">
<rect width="402" height="402" fill="white"/>
</clipPath>
</defs>
</svg>
