<svg xmlns="http://www.w3.org/2000/svg" viewBox="23.0 -809.0 4558.0 2334.0" preserveAspectRatio="none" aria-hidden="true"><g transform="scale(1,-1)" fill="#0d0d0d"><path d="M583 0.0H92V798.0H209V95.0H583Z"/><path d="M675 292.0C675 105.0 801 -14.0 956 -14.0C1112 -14.0 1236 105.0 1236 292.0C1236 480.0 1112 597.0 956 597.0C801 597.0 675 480.0 675 292.0ZM794 292.0C794 426.0 867 505.0 956 505.0C1045 505.0 1118 426.0 1118 292.0C1118 159.0 1045 79.0 956 79.0C867 79.0 794 159.0 794 292.0Z"/><path d="M1335 292.0C1335 105.0 1461 -14.0 1616 -14.0C1772 -14.0 1896 105.0 1896 292.0C1896 480.0 1772 597.0 1616 597.0C1461 597.0 1335 480.0 1335 292.0ZM1454 292.0C1454 426.0 1527 505.0 1616 505.0C1705 505.0 1778 426.0 1778 292.0C1778 159.0 1705 79.0 1616 79.0C1527 79.0 1454 159.0 1454 292.0Z"/><path d="M2339 581.0 2145 392.0V809.0H2028V0.0H2145V247.0L2401 0.0H2557L2219 319.0L2492 581.0Z"/><path d=""/><path d="M2954 721.0 3072 756.0V581.0H3205V487.0H3072V150.0C3072 89.0 3128 82.0 3195 81.0V-14.0C3052 -14.0 2954 15.0 2954 145.0V487.0H2874V581.0H2954Z"/><path d="M3290 292.0C3290 105.0 3416 -14.0 3571 -14.0C3727 -14.0 3851 105.0 3851 292.0C3851 480.0 3727 597.0 3571 597.0C3416 597.0 3290 480.0 3290 292.0ZM3409 292.0C3409 426.0 3482 505.0 3571 505.0C3660 505.0 3733 426.0 3733 292.0C3733 159.0 3660 79.0 3571 79.0C3482 79.0 3409 159.0 3409 292.0Z"/><path d="M103 -579.0 221 -544.0V-719.0H354V-813.0H221V-1150.0C221 -1211.0 277 -1218.0 344 -1219.0V-1314.0C201 -1314.0 103 -1285.0 103 -1155.0V-813.0H23V-719.0H103Z"/><path d="M589 -793.0C628 -737.0 689 -705.0 747 -705.0C875 -705.0 974 -780.0 974 -925.0V-1300.0H857V-935.0C857 -845.0 800 -798.0 738 -798.0C645 -798.0 589 -879.0 589 -967.0V-1300.0H472V-491.0H589Z"/><path d="M1502 -942.0C1494 -873.0 1442 -797.0 1357 -797.0C1283 -797.0 1228 -872.0 1212 -942.0ZM1582 -1246.0C1526 -1290.0 1456 -1313.0 1382 -1313.0C1217 -1313.0 1087 -1198.0 1087 -1019.0C1087 -837.0 1185 -705.0 1359 -705.0C1527 -705.0 1615 -840.0 1615 -981.0C1615 -992.0 1614 -1012.0 1610 -1037.0H1208C1219 -1166.0 1306 -1217.0 1386 -1217.0C1440 -1217.0 1490 -1197.0 1535 -1165.0Z"/><path d=""/><path d="M2158 -799.0C2192 -735.0 2265 -705.0 2328 -705.0C2337 -705.0 2346 -706.0 2355 -707.0V-808.0C2346 -807.0 2337 -807.0 2329 -807.0C2237 -807.0 2158 -860.0 2158 -941.0V-1300.0H2040V-719.0H2158Z"/><path d="M2445 -491.0H2577V-627.0H2445ZM2452 -719.0H2570V-1300.0H2452Z"/><path d="M2968 -795.0C2866 -795.0 2815 -898.0 2815 -1005.0C2815 -1108.0 2864 -1213.0 2968 -1213.0C3064 -1213.0 3125 -1126.0 3125 -1023.0V-986.0C3125 -861.0 3052 -795.0 2968 -795.0ZM2956 -704.0C3025 -704.0 3089 -743.0 3125 -794.0V-719.0H3242V-1237.0C3242 -1429.0 3119 -1525.0 2964 -1525.0C2890 -1525.0 2817 -1502.0 2753 -1469.0L2795 -1379.0C2846 -1407.0 2909 -1430.0 2964 -1430.0C3055 -1430.0 3125 -1358.0 3125 -1244.0V-1217.0C3091 -1269.0 3032 -1302.0 2956 -1302.0C2799 -1302.0 2699 -1192.0 2699 -1005.0C2699 -818.0 2809 -704.0 2956 -704.0Z"/><path d="M3526 -793.0C3565 -737.0 3626 -705.0 3684 -705.0C3812 -705.0 3911 -780.0 3911 -925.0V-1300.0H3794V-935.0C3794 -845.0 3737 -798.0 3675 -798.0C3582 -798.0 3526 -879.0 3526 -967.0V-1300.0H3409V-491.0H3526Z"/><path d="M4076 -579.0 4194 -544.0V-719.0H4327V-813.0H4194V-1150.0C4194 -1211.0 4250 -1218.0 4317 -1219.0V-1314.0C4174 -1314.0 4076 -1285.0 4076 -1155.0V-813.0H3996V-719.0H4076Z"/><path d="M4430 -1215.0H4581V-1355.0H4430Z"/></g></svg>