<svg xmlns="http://www.w3.org/2000/svg" viewBox="34.0 -809.0 4617.0 864.0" preserveAspectRatio="none" aria-hidden="true"><g transform="scale(1,-1)" fill="#0d0d0d"><path d="M633 703.0H391V0.0H273V703.0H34V798.0H633Z"/><path d="M867 507.0C906 563.0 967 595.0 1025 595.0C1153 595.0 1252 520.0 1252 375.0V0.0H1135V365.0C1135 455.0 1078 502.0 1016 502.0C923 502.0 867 421.0 867 333.0V0.0H750V809.0H867Z"/><path d="M1780 358.0C1772 427.0 1720 503.0 1635 503.0C1561 503.0 1506 428.0 1490 358.0ZM1860 54.0C1804 10.0 1734 -13.0 1660 -13.0C1495 -13.0 1365 102.0 1365 281.0C1365 463.0 1463 595.0 1637 595.0C1805 595.0 1893 460.0 1893 319.0C1893 308.0 1892 288.0 1888 263.0H1486C1497 134.0 1584 83.0 1664 83.0C1718 83.0 1768 103.0 1813 135.0Z"/><path d=""/><path d="M2444 0.0H2326V798.0H2444Z"/><path d="M3088 67.0C3028 10.0 2954 -14.0 2880 -14.0C2704 -14.0 2582 118.0 2582 288.0C2582 476.0 2706 596.0 2882 596.0C2951 596.0 3018 571.0 3075 539.0L3030 453.0C2988 478.0 2936 499.0 2882 499.0C2776 499.0 2702 413.0 2702 287.0C2702 150.0 2799 84.0 2884 84.0C2932 84.0 2981 104.0 3031 145.0Z"/><path d="M3175 292.0C3175 105.0 3301 -14.0 3456 -14.0C3612 -14.0 3736 105.0 3736 292.0C3736 480.0 3612 597.0 3456 597.0C3301 597.0 3175 480.0 3175 292.0ZM3294 292.0C3294 426.0 3367 505.0 3456 505.0C3545 505.0 3618 426.0 3618 292.0C3618 159.0 3545 79.0 3456 79.0C3367 79.0 3294 159.0 3294 292.0Z"/><path d="M3985 507.0C4024 563.0 4085 595.0 4143 595.0C4271 595.0 4370 520.0 4370 375.0V0.0H4253V365.0C4253 455.0 4196 502.0 4134 502.0C4041 502.0 3985 421.0 3985 333.0V0.0H3868V581.0H3985Z"/><path d="M4500 85.0H4651V-55.0H4500Z"/></g></svg>