<svg xmlns="http://www.w3.org/2000/svg" viewBox="18.0 -829.0 6351.0 2366.0" preserveAspectRatio="none" aria-hidden="true"><g transform="scale(1,-1)" fill="#0d0d0d"><path d="M495 646.0C422 687.0 369 710.0 309 710.0C225 710.0 177 668.0 177 608.0C177 536.0 242 506.0 362 454.0C484 401.0 578 330.0 578 213.0C578 55.0 441 -13.0 306 -13.0C203 -13.0 109 19.0 18 96.0L83 184.0C141 132.0 221 88.0 300 88.0C367 88.0 460 115.0 460 212.0C460 274.0 392 320.0 290 363.0C169 413.0 57 475.0 57 604.0C57 758.0 189 811.0 308 811.0C394 811.0 474 778.0 548 733.0Z"/><path d="M1101 358.0C1093 427.0 1041 503.0 956 503.0C882 503.0 827 428.0 811 358.0ZM1181 54.0C1125 10.0 1055 -13.0 981 -13.0C816 -13.0 686 102.0 686 281.0C686 463.0 784 595.0 958 595.0C1126 595.0 1214 460.0 1214 319.0C1214 308.0 1213 288.0 1209 263.0H807C818 134.0 905 83.0 985 83.0C1039 83.0 1089 103.0 1134 135.0Z"/><path d="M1336 809.0H1454V0.0H1336Z"/><path d="M1633 581.0V628.0C1633 665.0 1637 698.0 1645 720.0C1672 789.0 1738 829.0 1803 829.0C1843 829.0 1888 820.0 1930 804.0L1896 711.0C1864 722.0 1832 731.0 1815 731.0C1791 731.0 1769 717.0 1758 695.0C1754 684.0 1751 663.0 1751 631.0V581.0H1869V487.0H1751V0.0H1633V487.0H1557V581.0Z"/><path d="M1975 339.0V437.0H2483V339.0Z"/><path d="M3167 0.0H2636V798.0H3156V703.0H2753V462.0H3136V366.0H2753V95.0H3167Z"/><path d="M3510 158.0 3662 581.0H3785L3564 0.0H3455L3235 581.0H3358Z"/><path d="M3865 809.0H3997V673.0H3865ZM3872 581.0H3990V0.0H3872Z"/><path d="M4373 596.0C4224 596.0 4119 476.0 4119 289.0C4119 96.0 4223 -13.0 4374 -13.0C4448 -13.0 4508 21.0 4545 72.0V0.0H4662V809.0H4545V505.0C4507 560.0 4443 596.0 4373 596.0ZM4390 505.0C4478 505.0 4545 438.0 4545 300.0V289.0C4545 173.0 4495 76.0 4390 76.0C4285 76.0 4236 185.0 4236 289.0C4236 397.0 4278 505.0 4390 505.0Z"/><path d="M5212 358.0C5204 427.0 5152 503.0 5067 503.0C4993 503.0 4938 428.0 4922 358.0ZM5292 54.0C5236 10.0 5166 -13.0 5092 -13.0C4927 -13.0 4797 102.0 4797 281.0C4797 463.0 4895 595.0 5069 595.0C5237 595.0 5325 460.0 5325 319.0C5325 308.0 5324 288.0 5320 263.0H4918C4929 134.0 5016 83.0 5096 83.0C5150 83.0 5200 103.0 5245 135.0Z"/><path d="M5568 507.0C5607 563.0 5668 595.0 5726 595.0C5854 595.0 5953 520.0 5953 375.0V0.0H5836V365.0C5836 455.0 5779 502.0 5717 502.0C5624 502.0 5568 421.0 5568 333.0V0.0H5451V581.0H5568Z"/><path d="M6118 721.0 6236 756.0V581.0H6369V487.0H6236V150.0C6236 89.0 6292 82.0 6359 81.0V-14.0C6216 -14.0 6118 15.0 6118 145.0V487.0H6038V581.0H6118Z"/><path d="M208 -1300.0H90V-502.0H208Z"/><path d="M496 -793.0C535 -737.0 596 -705.0 654 -705.0C782 -705.0 881 -780.0 881 -925.0V-1300.0H764V-935.0C764 -845.0 707 -798.0 645 -798.0C552 -798.0 496 -879.0 496 -967.0V-1300.0H379V-719.0H496Z"/><path d="M1046 -579.0 1164 -544.0V-719.0H1297V-813.0H1164V-1150.0C1164 -1211.0 1220 -1218.0 1287 -1219.0V-1314.0C1144 -1314.0 1046 -1285.0 1046 -1155.0V-813.0H966V-719.0H1046Z"/><path d="M1783 -1225.0C1744 -1281.0 1683 -1314.0 1625 -1314.0C1497 -1314.0 1398 -1238.0 1398 -1093.0V-719.0H1515V-1083.0C1515 -1173.0 1572 -1220.0 1634 -1220.0C1727 -1220.0 1783 -1139.0 1783 -1052.0V-719.0H1900V-1300.0H1783Z"/><path d="M2049 -491.0H2181V-627.0H2049ZM2056 -719.0H2174V-1300.0H2056Z"/><path d="M2356 -579.0 2474 -544.0V-719.0H2607V-813.0H2474V-1150.0C2474 -1211.0 2530 -1218.0 2597 -1219.0V-1314.0C2454 -1314.0 2356 -1285.0 2356 -1155.0V-813.0H2276V-719.0H2356Z"/><path d="M2712 -491.0H2844V-627.0H2712ZM2719 -719.0H2837V-1300.0H2719Z"/><path d="M3199 -1142.0 3351 -719.0H3474L3253 -1300.0H3144L2924 -719.0H3047Z"/><path d="M3950 -942.0C3942 -873.0 3890 -797.0 3805 -797.0C3731 -797.0 3676 -872.0 3660 -942.0ZM4030 -1246.0C3974 -1290.0 3904 -1313.0 3830 -1313.0C3665 -1313.0 3535 -1198.0 3535 -1019.0C3535 -837.0 3633 -705.0 3807 -705.0C3975 -705.0 4063 -840.0 4063 -981.0C4063 -992.0 4062 -1012.0 4058 -1037.0H3656C3667 -1166.0 3754 -1217.0 3834 -1217.0C3888 -1217.0 3938 -1197.0 3983 -1165.0Z"/><path d="M4174 -1215.0H4325V-1319.0C4325 -1347.0 4323 -1370.0 4319 -1387.0C4303 -1448.0 4259 -1506.0 4205 -1537.0L4169 -1500.0C4201 -1474.0 4245 -1419.0 4247 -1355.0H4174Z"/></g></svg>