<svg preserveAspectRatio="none" width="100%" height="100%" overflow="visible" style="display: block;" viewBox="0 0 817 269" fill="none" xmlns="http://www.w3.org/2000/svg">
<g id="Frame 137">
<path id="&#227;&#133;&#138; &#227;&#133;&#134; &#227;&#133;&#153;" opacity="0.95" d="M802.076 2.28947V234.035H771.528V118.259H753.993V226.245H723.176V5.24455H753.993V89.8598H771.528V2.28947H802.076ZM192.076 72.3998V100.261H134.86V101.373C134.86 116.478 143.47 129.646 156.565 140.168C169.658 150.69 187.183 158.521 204.86 162.94L205.479 163.094L205.18 163.659L190.406 191.595L190.226 191.935L189.851 191.848C157.573 184.379 132.641 167.653 119.032 146.073C104.374 167.672 78.4189 186.516 47.7058 193.46L47.3396 193.543L47.1579 193.215L32.1149 166.084L31.8093 165.533L32.4167 165.361C49.9617 160.405 67.4895 152.106 80.6198 141.281C93.7541 130.452 102.431 117.149 102.431 102.179V100.261H43.8718V72.3998H192.076ZM472.766 52.2533V91.9721C472.767 120.499 489.291 143.453 513.08 157.352L513.58 157.644L513.218 158.096L493.878 182.272L493.587 182.635L493.203 182.372C477.839 171.776 465.336 157.795 457.222 142.723C448.825 158.337 435.516 172.852 419.082 183.455L418.702 183.699L418.42 183.346L401.228 161.857L400.878 161.419L401.353 161.121C426.471 145.355 441.412 119.721 441.412 91.9721V52.2533H472.766ZM390.568 53.059V91.1655C390.568 111.125 400.139 125.77 413.491 136.986L413.898 137.328L413.532 137.713L392.848 159.471L392.555 159.78L392.204 159.539C386.467 155.628 379.214 148.7 375.284 141.627C366.626 157.001 353.059 172.043 336.62 182.913L336.236 183.167L335.952 182.807L318.759 161.048L318.412 160.608L318.889 160.313C344.006 144.815 359.214 119.181 359.214 91.1655V53.059H390.568ZM670.989 68.9076V141.123C683.481 140.077 696.701 139.523 711.239 137.144L711.768 137.057L711.818 137.591L714.235 163.916L714.279 164.388L713.809 164.456C686.127 168.488 670.802 169.832 653.597 170.908L653.59 170.909H653.582C636.67 171.446 611.94 172.521 595.007 172.521H594.538L594.508 172.053C593.97 163.727 593.166 152.995 592.093 144.414L592.023 143.853H592.59C603.753 143.853 624.127 143.588 639.904 143.062V68.9076H670.989ZM161.721 32.1069V60.2367H75.3005V32.1069H161.721Z" fill="var(--fill-0, #F7F8F8)" stroke="var(--stroke-0, #171919)"/>
<mask id="mask0_863_6162" style="mask-type:alpha" maskUnits="userSpaceOnUse" x="32" y="2" width="770" height="232">
<g id="&#227;&#133;&#138; &#227;&#133;&#134; &#227;&#133;&#153;_2" opacity="0.95">
<path d="M191.574 99.7612H134.358V101.373C134.358 131.996 169.279 154.56 204.737 163.424L189.963 191.361C157.46 183.84 132.478 166.916 119.047 145.158C104.541 166.916 78.485 185.989 47.5936 192.973L32.5508 165.842C67.7401 155.903 102.929 132.533 102.929 102.179V99.7612H44.3701V72.8991H191.574V99.7612ZM161.22 59.7367H75.7987V32.606H161.22V59.7367Z" fill="var(--fill-0, #161616)"/>
<path d="M413.168 137.368L392.484 159.126C386.574 155.097 379.053 147.844 375.292 140.592C366.696 156.172 352.997 171.483 336.342 182.496L319.15 160.738C344.401 145.158 359.712 119.371 359.712 91.1653V53.5584H390.066V91.1653C390.066 111.312 399.737 126.086 413.168 137.368ZM418.809 183.034L401.617 161.544C426.867 145.695 441.91 119.908 441.91 91.9712V52.7525H472.264V91.9712C472.264 120.714 488.919 143.815 512.826 157.783L493.485 181.959C477.905 171.214 465.28 156.977 457.222 141.666C448.894 157.515 435.463 172.289 418.809 183.034Z" fill="var(--fill-0, #161616)"/>
<path d="M801.575 233.534H772.026V117.759H753.492V225.744H723.675V5.74389H753.492V90.3595H772.026V2.78906H801.575V233.534ZM711.318 137.637L713.736 163.962C686.068 167.991 670.756 169.334 653.565 170.409C636.641 170.946 611.928 172.02 595.005 172.02C594.468 163.693 593.662 152.948 592.588 144.352C603.87 144.352 624.553 144.084 640.402 143.546V69.407H670.488V141.666C683.113 140.592 696.544 140.054 711.318 137.637Z" fill="var(--fill-0, #161616)"/>
</g>
</mask>
<g mask="url(#mask0_863_6162)">
<rect id="Rectangle 113" x="20" y="19" width="213" height="81" fill="var(--fill-0, #09D3FF)" fill-opacity="0.4"/>
<rect id="Rectangle 114" x="375" y="50" width="82" height="145" fill="var(--fill-0, #09D3FF)" fill-opacity="0.4"/>
<rect id="Rectangle 115" x="585" y="59" width="130" height="126" fill="var(--fill-0, #09D3FF)" fill-opacity="0.4"/>
</g>
</g>
</svg>
