<svg preserveAspectRatio="none" width="100%" height="100%" overflow="visible" style="display: block;" viewBox="0 0 783 235.409" fill="none" xmlns="http://www.w3.org/2000/svg">
<g id="Frame 138">
<path id="&#227;&#133;&#138; &#227;&#133;&#134; &#227;&#133;&#153;" opacity="0.95" d="M772.986 20.1597V234.91H738.386V127.04H723.693V228.057H689.094V22.3696H723.693V98.4097H738.386V20.1597H772.986ZM128.168 53.3159V84.7046H186.745V111.788H130.501C133.615 125.42 143.739 137.763 156.789 147.638C170.023 157.653 186.207 165.085 200.954 168.716L201.734 168.908L201.216 169.523L181.323 193.175L181.121 193.415L180.817 193.337C152.204 186.074 125.583 165.517 110.64 145.923C96.1782 164.209 71.9337 185.199 40.2592 193.337L39.9506 193.417L39.7485 193.17L20.517 169.74L20.017 169.13L20.7817 168.938C36.066 165.089 51.4743 157.002 64.1059 146.682C76.5243 136.536 86.2208 124.263 90.5004 111.788H34.5502V84.7046H93.1274V53.3159H128.168ZM370.337 60.8315V107.088C370.337 118.412 372.261 126.899 375.84 134.167C379.36 141.313 384.498 147.313 391.056 153.691C403.838 141.219 412.441 125.976 412.441 107.088V60.8315H447.924V107.088C447.924 133.773 470.033 155.084 493.222 169.439L493.759 169.772L472.936 190.595L472.609 190.42C457.064 182.101 440.674 167.747 430.646 155.005C421.537 167.91 407.954 180.122 392.874 189.738L392.636 189.889L392.384 189.765C376.816 182.091 361.707 167.944 352.352 154.992C342.57 167.077 327.263 181.011 311.306 191.066L310.968 191.279L310.686 190.997L289.909 170.218L289.469 169.779L289.992 169.444C315.824 152.885 334.855 132.237 334.855 107.088V60.8315H370.337ZM638.812 87.7993V152.75C651.687 151.838 666.029 149.448 678.677 147.267L679.262 147.167V175.162L678.833 175.222C666.455 176.99 646.971 180.753 606.481 180.753H563.983V153.45H603.992V87.7993H638.812Z" fill="var(--fill-0, #F7F8F8)" stroke="var(--stroke-0, #171919)"/>
<mask id="mask0_863_6180" style="mask-type:alpha" maskUnits="userSpaceOnUse" x="20" y="20" width="753" height="215">
<g id="&#227;&#133;&#138; &#227;&#133;&#134; &#227;&#133;&#153;_2" opacity="0.95">
<path d="M180.938 192.854C152.203 185.559 125.456 164.781 110.646 145.108C96.2784 163.455 71.9636 184.675 40.1332 192.854L20.9023 169.423C51.6275 161.686 82.7947 136.929 91.1944 111.288H35.0492V85.2051H93.6259V53.8168H127.667V85.2051H186.243V111.288H129.877C135.845 139.361 171.212 161.907 200.832 169.202L180.938 192.854Z" fill="var(--fill-0, #161616)"/>
<path d="M472.843 189.98C457.149 181.58 440.57 166.991 430.623 154.171C421.561 167.213 407.856 179.591 392.604 189.317C376.91 181.58 361.658 167.213 352.374 154.171C342.648 166.328 327.175 180.475 311.038 190.643L290.26 169.865C316.122 153.287 335.353 132.509 335.353 107.088V61.3323H369.836V107.088C369.836 129.856 377.573 141.35 391.056 154.392C404.098 141.792 412.94 126.319 412.94 107.088V61.3323H447.423V107.088C447.423 134.056 469.748 155.497 492.958 169.865L472.843 189.98Z" fill="var(--fill-0, #161616)"/>
<path d="M638.31 88.2997V153.287C651.352 152.403 665.941 149.971 678.761 147.761V174.728C666.383 176.496 646.931 180.254 606.48 180.254H564.481V153.95H604.49V88.2997H638.31ZM772.484 20.6602V234.41H738.885V126.54H723.191V227.558H689.592V22.8706H723.191V98.9098H738.885V20.6602H772.484Z" fill="var(--fill-0, #161616)"/>
</g>
</mask>
<g mask="url(#mask0_863_6180)">
<rect id="Rectangle 113" x="352" y="59" width="79" height="139" fill="var(--fill-0, #09D3FF)" fill-opacity="0.4"/>
<rect id="Rectangle 114" x="30" y="44" width="171" height="67" fill="var(--fill-0, #09D3FF)" fill-opacity="0.4"/>
<rect id="Rectangle 115" x="512" y="77" width="171" height="126" fill="var(--fill-0, #09D3FF)" fill-opacity="0.4"/>
</g>
</g>
</svg>
