<svg preserveAspectRatio="none" width="100%" height="100%" overflow="visible" style="display: block;" viewBox="0 0 783 235.409" fill="none" xmlns="http://www.w3.org/2000/svg">
<g id="Frame 138">
<path id="&#227;&#133;&#138; &#227;&#133;&#134; &#227;&#133;&#153;" opacity="0.95" d="M772.986 20.1597V234.91H738.386V127.04H723.693V228.057H689.094V22.3696H723.693V98.4097H738.386V20.1597H772.986ZM128.168 53.3159V84.7046H186.745V111.788H130.501C133.615 125.42 143.739 137.763 156.789 147.638C170.023 157.653 186.207 165.085 200.954 168.716L201.734 168.908L201.216 169.523L181.323 193.175L181.121 193.415L180.817 193.337C152.204 186.074 125.583 165.517 110.64 145.923C96.1782 164.209 71.9337 185.199 40.2592 193.337L39.9506 193.417L39.7485 193.17L20.517 169.74L20.017 169.13L20.7817 168.938C36.066 165.089 51.4743 157.002 64.1059 146.682C76.5243 136.536 86.2208 124.263 90.5004 111.788H34.5502V84.7046H93.1274V53.3159H128.168ZM370.337 60.8315V107.088C370.337 118.412 372.261 126.899 375.84 134.167C379.36 141.313 384.498 147.313 391.056 153.691C403.838 141.219 412.441 125.976 412.441 107.088V60.8315H447.924V107.088C447.924 133.773 470.033 155.084 493.222 169.439L493.759 169.772L472.936 190.595L472.609 190.42C457.064 182.101 440.674 167.747 430.646 155.005C421.537 167.91 407.954 180.122 392.874 189.738L392.636 189.889L392.384 189.765C376.816 182.091 361.707 167.944 352.352 154.992C342.57 167.077 327.263 181.011 311.306 191.066L310.968 191.279L310.686 190.997L289.909 170.218L289.469 169.779L289.992 169.444C315.824 152.885 334.855 132.237 334.855 107.088V60.8315H370.337ZM638.812 87.7993V152.75C651.687 151.838 666.029 149.448 678.677 147.267L679.262 147.167V175.162L678.833 175.222C666.455 176.99 646.971 180.753 606.481 180.753H563.983V153.45H603.992V87.7993H638.812Z" fill="var(--fill-0, #171919)" stroke="var(--stroke-0, #171919)"/>
</g>
</svg>
