<svg preserveAspectRatio="none" width="100%" height="100%" overflow="visible" style="display: block;" viewBox="0 0 817 269" fill="none" xmlns="http://www.w3.org/2000/svg">
<g id="Frame 137">
<g id="&#227;&#133;&#138; &#227;&#133;&#134; &#227;&#133;&#153;" opacity="0.95">
<path d="M191.576 99.7616H134.36V101.373C134.36 131.996 169.281 154.56 204.738 163.425L189.964 191.361C157.461 183.84 132.479 166.917 119.048 145.159C104.543 166.917 78.4866 185.989 47.5952 192.973L32.5524 165.842C67.7418 155.903 102.931 132.533 102.931 102.179V99.7616H44.3718V72.8995H191.576V99.7616ZM161.222 59.7371H75.8004V32.6064H161.222V59.7371Z" fill="var(--fill-0, #171919)"/>
<path d="M413.169 137.369L392.486 159.127C386.576 155.098 379.055 147.845 375.294 140.592C366.698 156.172 352.998 171.483 336.344 182.497L319.152 160.739C344.402 145.159 359.714 119.371 359.714 91.1658V53.5588H390.068V91.1658C390.068 111.312 399.738 126.086 413.169 137.369ZM418.81 183.034L401.619 161.544C426.869 145.696 441.912 119.908 441.912 91.9716V52.753H472.266V91.9716C472.266 120.714 488.92 143.815 512.828 157.784L493.487 181.96C477.907 171.215 465.282 156.978 457.223 141.666C448.896 157.515 435.465 172.289 418.81 183.034Z" fill="var(--fill-0, #171919)"/>
<path d="M801.576 233.535H772.028V117.759H753.493V225.745H723.676V5.7443H753.493V90.3599H772.028V2.78947H801.576V233.535ZM711.32 137.637L713.737 163.962C686.069 167.991 670.758 169.334 653.566 170.409C636.643 170.946 611.93 172.021 595.007 172.021C594.47 163.693 593.664 152.949 592.589 144.353C603.871 144.353 624.555 144.084 640.404 143.547V69.4074H670.489V141.666C683.115 140.592 696.546 140.055 711.32 137.637Z" fill="var(--fill-0, #171919)"/>
</g>
</g>
</svg>
