<svg xmlns="http://www.w3.org/2000/svg" viewBox="3.0 -919.0 941.0 1057.0" preserveAspectRatio="xMidYMid meet"><g transform="scale(1,-1)" fill="#171919"><path d="M219 -19C219 53 325 99 479 99C632 99 738 54 738 -19C738 -92 632 -138 479 -138C325 -138 219 -93 219 -19ZM229 315C128 315 38 368 38 464C38 562 130 616 229 616C327 616 423 566 424 465C424 370 336 315 229 315ZM251 -19C251 -80 353 -114 479 -114C605 -114 707 -85 707 -19C707 46 605 75 479 75C353 75 251 41 251 -19ZM229 587C134 587 69 538 69 464C69 388 133 343 229 343C327 343 391 387 391 464C391 542 324 587 229 587ZM165 194H464V300H495V194H790V167H165ZM447 519V547H572V788H603V303H572V519ZM246 810V697H454V671H3V697H215V810ZM781 794V303H750V794Z"/></g></svg>