<svg xmlns="http://www.w3.org/2000/svg" viewBox="3.0 -919.0 941.0 1057.0" preserveAspectRatio="xMidYMid meet"><g transform="scale(1,-1)" fill="#171919"><path d="M278 582C311 582 350 559 350 529C350 501 314 483 278 483C245 483 212 501 212 529C212 563 248 582 278 582ZM394 50C394 71 445 88 540 88C637 88 693 74 693 50C693 22 637 10 540 10C445 10 394 25 394 50ZM190 919V827H12V701H530V827H364V919ZM778 901V388H944V901ZM571 894V667H485V616C441 665 360 691 278 691C165 691 42 641 42 530C42 423 167 369 278 369C392 369 511 420 518 520H571V422H730V894ZM204 49C204 -38 326 -109 550 -109C777 -109 883 -42 883 49C883 115 821 164 699 185H927V316H632V398H449V316H154V185H385C264 163 204 113 204 49Z"/></g></svg>