<svg xmlns="http://www.w3.org/2000/svg" viewBox="25 -901 1020 994" preserveAspectRatio="xMidYMid meet" aria-label="와"><g transform="scale(1,-1)" fill="#0d0d0d"><path transform="translate(0,0) scale(1,1)" d="M455 621C455 558 404 506 335 506C253 506 206 558 206 621C206 680 248 738 333 738C407 738 455 686 455 621ZM25 62C273 62 481 64 660 93V234C586 225 511 219 432 214V340H249V208C178 206 104 206 25 206ZM709 901V-93H887V378H1045V528H887V901ZM339 365C522 365 630 488 630 619C630 766 514 879 333 879C146 879 31 768 31 622C31 479 141 365 339 365Z"/></g></svg>