<svg xmlns="http://www.w3.org/2000/svg" viewBox="13 -820 926 942" preserveAspectRatio="xMidYMid meet" aria-label="와"><g transform="scale(1,-1)" fill="#0d0d0d"><path transform="translate(0,0) scale(1,1)" d="M313 329C162 329 51 424 51 560C51 693 164 790 308 790C466 790 563 686 563 557C563 426 468 329 313 329ZM782 820V445H939V372H782V-122H693V820ZM473 559C473 652 413 715 308 715C205 715 141 644 141 559C141 467 203 402 310 402C414 402 473 466 473 559ZM13 128C98 128 184 129 265 130V283H356V134C456 138 549 143 626 151V79C468 56 236 53 13 53Z"/></g></svg>