<svg xmlns="http://www.w3.org/2000/svg" viewBox="25 -814 889 952" preserveAspectRatio="xMidYMid meet" aria-label="웅"><path d="M806 44C806 -61 699 -138 470 -138C246 -138 136 -61 136 44C136 142 228 215 422 225V322H25V395H914V322H516V225C711 215 806 142 806 44ZM142 646C142 747 268 814 468 814C665 814 796 748 796 646C796 535 664 475 468 475C268 475 142 537 142 646ZM470 157C320 157 232 114 232 45C232 -24 320 -68 470 -68C620 -68 708 -25 708 45C708 116 620 157 470 157ZM236 646C236 573 352 546 468 546C587 546 701 573 701 646C701 712 584 742 468 742C352 742 236 711 236 646Z" transform="scale(1,-1)" fill="#0d0d0d"/></svg>