<svg xmlns="http://www.w3.org/2000/svg" viewBox="26.0 -912.0 965.0 1019.0" preserveAspectRatio="xMidYMid meet"><g transform="scale(1,-1)" fill="#171919"><path d="M511 156C616 156 696 136 696 92C696 48 616 26 511 26C402 26 323 45 323 92C323 136 402 156 511 156ZM322 721C322 767 403 787 505 787C611 787 695 768 695 721C695 670 611 650 505 650C403 650 322 670 322 721ZM139 721C139 593 275 526 505 526C734 526 878 591 878 721C878 842 731 912 505 912C275 912 139 841 139 721ZM136 90C136 -39 287 -107 511 -107C726 -107 882 -39 882 88C882 205 768 268 602 284V337H991V475H26V337H417V284C250 267 136 202 136 90Z"/></g></svg>