<svg xmlns="http://www.w3.org/2000/svg" viewBox="21.0 -841.0 7112.0 2378.0" preserveAspectRatio="none" aria-hidden="true"><g transform="scale(1,-1)" fill="#0d0d0d"><path d="M863 356.0H741V593.0H556V689.0H741V841.0H863ZM887 -140.0H204V131.0H736V207.0H204V302.0H861V36.0H329V-46.0H887ZM607 363.0C516 396.0 406 459.0 348 541.0C297 452.0 188 383.0 91 334.0L21 413.0C148 475.0 284 558.0 284 705.0V824.0H408V705.0C408 566.0 541 494.0 660 447.0Z"/><path d="M1841 53.0C1841 -70.0 1739 -152.0 1504 -152.0C1275 -152.0 1167 -67.0 1167 53.0C1167 173.0 1275 262.0 1504 262.0C1739 262.0 1841 180.0 1841 53.0ZM1716 53.0C1716 124.0 1638 168.0 1505 168.0C1372 168.0 1296 123.0 1296 53.0C1296 -13.0 1372 -59.0 1505 -59.0C1638 -59.0 1716 -13.0 1716 53.0ZM1521 339.0H1062V791.0H1521ZM1401 434.0V695.0H1181V434.0ZM1565 716.0H1711V841.0H1833V282.0H1711V428.0H1565V524.0H1711V620.0H1565Z"/><path d="M2535 298.0C2535 160.0 2443 43.0 2277 43.0C2119 43.0 2021 152.0 2021 298.0C2021 456.0 2120 553.0 2277 553.0C2443 553.0 2535 458.0 2535 298.0ZM2773 841.0V444.0H2939V341.0H2773V-136.0H2651V841.0ZM2340 699.0H2592V602.0H1963V699.0H2215V841.0H2340ZM2415 298.0C2415 396.0 2372 456.0 2277 456.0C2189 456.0 2142 393.0 2142 298.0C2142 206.0 2189 142.0 2277 142.0C2372 142.0 2415 206.0 2415 298.0Z"/><path d="M3793 -136.0H3671V841.0H3793ZM3546 98.0C3459 146.0 3357 220.0 3299 327.0C3244 218.0 3143 140.0 3037 76.0L2960 155.0C3107 236.0 3235 359.0 3235 522.0V672.0H3022V771.0H3573V672.0H3359V518.0C3359 362.0 3474 248.0 3605 184.0Z"/><path d=""/><path d="M4524 829.0C4689 829.0 4791 716.0 4791 587.0C4791 459.0 4698 344.0 4524 344.0C4353 344.0 4254 459.0 4254 587.0C4254 718.0 4356 829.0 4524 829.0ZM5070 -13.0C5070 -99.0 5007 -160.0 4863 -160.0C4723 -160.0 4656 -98.0 4656 -13.0C4656 70.0 4723 134.0 4863 134.0C5003 134.0 5070 72.0 5070 -13.0ZM5027 841.0V652.0H5181V554.0H5027V370.0H4905V841.0ZM4670 587.0C4670 665.0 4619 732.0 4524 732.0C4423 732.0 4376 665.0 4376 587.0C4376 513.0 4422 442.0 4524 442.0C4620 442.0 4670 511.0 4670 587.0ZM4631 -113.0C4566 -126.0 4510 -127.0 4343 -127.0V265.0H4465V-26.0C4517 -26.0 4559 -25.0 4631 -16.0ZM5098 154.0H4626V239.0H4802V334.0H4923V239.0H5098ZM4952 -15.0C4952 25.0 4917 51.0 4864 51.0C4806 51.0 4773 25.0 4773 -13.0C4773 -51.0 4807 -75.0 4863 -75.0C4920 -75.0 4952 -54.0 4952 -15.0Z"/><path d="M6005 841.0V494.0H6171V394.0H6005V-136.0H5883V841.0ZM5755 442.0C5755 216.0 5648 95.0 5490 95.0C5334 95.0 5227 216.0 5227 442.0C5227 676.0 5334 790.0 5490 790.0C5648 790.0 5755 675.0 5755 442.0ZM5634 443.0C5634 598.0 5581 692.0 5491 692.0C5403 692.0 5349 600.0 5349 443.0C5349 294.0 5403 194.0 5491 194.0C5581 194.0 5634 294.0 5634 443.0Z"/><path d="M6330 319.0V780.0H7014V683.0H6452V416.0H7027V319.0ZM6732 265.0V104.0H7133V6.0H6202V104.0H6607V265.0Z"/><path d="M961 -718.0H807V-939.0H685V-459.0H807V-619.0H961ZM832 -1440.0H158V-1166.0H684V-1086.0H158V-994.0H809V-1261.0H284V-1346.0H832ZM304 -465.0C465 -465.0 571 -568.0 571 -695.0C571 -824.0 465 -922.0 304 -922.0C144 -922.0 34 -824.0 34 -695.0C34 -567.0 147 -465.0 304 -465.0ZM450 -695.0C450 -618.0 389 -562.0 304 -562.0C210 -562.0 156 -618.0 156 -695.0C156 -771.0 210 -824.0 304 -824.0C391 -824.0 450 -771.0 450 -695.0Z"/><path d=""/><path d="M2120 -909.0C1991 -873.0 1853 -816.0 1769 -715.0C1692 -809.0 1542 -874.0 1419 -905.0L1357 -815.0C1510 -780.0 1705 -696.0 1705 -578.0V-469.0H1834V-578.0C1834 -694.0 2042 -783.0 2178 -815.0ZM2233 -1088.0H1831V-1436.0H1707V-1088.0H1302V-990.0H2233Z"/><path d=""/><path d="M3297 -459.0H3419V-1014.0H3297ZM2889 -476.0C3057 -476.0 3158 -591.0 3158 -720.0C3158 -848.0 3063 -962.0 2889 -962.0C2719 -962.0 2623 -848.0 2623 -720.0C2623 -590.0 2722 -476.0 2889 -476.0ZM3038 -720.0C3038 -643.0 2985 -573.0 2889 -573.0C2787 -573.0 2741 -643.0 2741 -720.0C2741 -793.0 2786 -867.0 2889 -867.0C2987 -867.0 3038 -797.0 3038 -720.0ZM3434 -1445.0C3360 -1403.0 3295 -1342.0 3258 -1287.0C3220 -1344.0 3161 -1399.0 3089 -1444.0C2997 -1389.0 2953 -1344.0 2921 -1289.0C2884 -1344.0 2818 -1400.0 2737 -1445.0L2665 -1369.0C2773 -1306.0 2855 -1213.0 2855 -1117.0V-1059.0H2981V-1117.0C2981 -1189.0 3024 -1269.0 3088 -1318.0C3149 -1269.0 3196 -1189.0 3196 -1117.0V-1059.0H3320V-1117.0C3320 -1224.0 3403 -1316.0 3511 -1369.0Z"/><path d="M4389 -833.0H3692V-471.0H3813V-736.0H4389ZM4493 -1033.0H3562V-937.0H4493ZM4406 -1419.0H3687V-1116.0H3811V-1321.0H4406Z"/><path d="M4588 -1215.0H4739V-1319.0C4739 -1347.0 4737 -1370.0 4733 -1387.0C4717 -1448.0 4673 -1506.0 4619 -1537.0L4583 -1500.0C4615 -1474.0 4659 -1419.0 4661 -1355.0H4588Z"/></g></svg>