<svg xmlns="http://www.w3.org/2000/svg" viewBox="22.0 -843.0 3871.0 2279.0" preserveAspectRatio="none" aria-hidden="true"><g transform="scale(1,-1)" fill="#0d0d0d"><path d="M839 550.0C839 412.0 715 294.0 488 294.0C265 294.0 142 412.0 142 550.0C142 688.0 265 806.0 488 806.0C713 806.0 839 688.0 839 550.0ZM714 550.0C714 642.0 634 707.0 488 707.0C343 707.0 264 641.0 264 550.0C264 461.0 344 393.0 488 393.0C634 393.0 714 461.0 714 550.0ZM552 254.0V99.0H953V1.0H22V99.0H427V254.0Z"/><path d="M1846 -119.0H1127V154.0H1251V-21.0H1846ZM1132 388.0V649.0H1682V725.0H1132V819.0H1803V560.0H1253V480.0H1829V388.0ZM1933 311.0V216.0H1002V311.0Z"/><path d="M2804 452.0C2737 482.0 2666 543.0 2626 594.0C2604 553.0 2552 502.0 2512 473.0V374.0H2913V277.0H1982V374.0H2387V472.0C2346 502.0 2293 554.0 2271 593.0C2230 541.0 2161 481.0 2093 450.0L2031 529.0C2126 575.0 2202 632.0 2213 722.0H2092V816.0H2428V722.0H2333C2342 654.0 2393 595.0 2448 551.0C2505 595.0 2556 654.0 2565 722.0H2470V816.0H2807V722.0H2685C2697 630.0 2775 567.0 2863 527.0ZM2792 -140.0H2668V93.0H2094V189.0H2792Z"/><path d="M3893 434.0V340.0H2962V434.0ZM3798 -140.0H3087V119.0H3645V189.0H3087V282.0H3772V29.0H3213V-47.0H3798ZM3083 663.0C3083 772.0 3210 843.0 3426 843.0C3640 843.0 3773 773.0 3773 663.0C3773 544.0 3641 479.0 3426 479.0C3210 479.0 3083 546.0 3083 663.0ZM3209 663.0C3209 598.0 3304 571.0 3426 571.0C3548 571.0 3646 598.0 3646 663.0C3646 721.0 3547 752.0 3426 752.0C3304 752.0 3209 720.0 3209 663.0Z"/><path d="M151 -1013.0V-505.0H271V-675.0H706V-505.0H827V-1013.0ZM552 -1061.0V-1210.0H953V-1308.0H22V-1210.0H427V-1061.0ZM706 -917.0V-770.0H271V-917.0Z"/><path d="M1670 -1404.0H1551V-837.0H1401V-737.0H1551V-464.0H1670ZM1878 -1436.0H1757V-459.0H1878ZM1451 -1196.0C1380 -1150.0 1306 -1075.0 1261 -993.0C1215 -1073.0 1142 -1164.0 1043 -1216.0L967 -1135.0C1124 -1044.0 1198 -911.0 1198 -789.0V-504.0H1322V-789.0C1322 -924.0 1392 -1036.0 1517 -1116.0Z"/><path d="M2689 -1047.0V-1206.0H2913V-1304.0H1982V-1206.0H2215V-1047.0H2336V-1206.0H2567V-1047.0ZM2799 -761.0C2799 -898.0 2675 -1016.0 2448 -1016.0C2225 -1016.0 2102 -898.0 2102 -761.0C2102 -623.0 2225 -504.0 2448 -504.0C2673 -504.0 2799 -623.0 2799 -761.0ZM2674 -761.0C2674 -668.0 2594 -602.0 2448 -602.0C2303 -602.0 2224 -669.0 2224 -761.0C2224 -850.0 2304 -917.0 2448 -917.0C2594 -917.0 2674 -850.0 2674 -761.0Z"/><path d="M3008 -1215.0H3159V-1355.0H3008Z"/></g></svg>