<svg xmlns="http://www.w3.org/2000/svg" viewBox="34.0 -841.0 6119.0 993.0" preserveAspectRatio="none" aria-hidden="true"><g transform="scale(1,-1)" fill="#0d0d0d"><path d="M961 546.0H807V339.0H685V841.0H807V643.0H961ZM808 -129.0H168V285.0H291V161.0H687V285.0H808ZM687 -34.0V64.0H291V-34.0ZM304 823.0C463 823.0 571 719.0 571 589.0C571 461.0 465 354.0 304 354.0C142 354.0 34 461.0 34 589.0C34 720.0 144 823.0 304 823.0ZM450 589.0C450 667.0 394 725.0 304 725.0C208 725.0 156 667.0 156 589.0C156 514.0 208 452.0 304 452.0C394 452.0 450 513.0 450 589.0Z"/><path d="M1130 319.0V780.0H1814V683.0H1252V416.0H1827V319.0ZM1532 265.0V104.0H1933V6.0H1002V104.0H1407V265.0Z"/><path d="M2550 291.0C2461 323.0 2373 392.0 2319 469.0C2265 381.0 2163 313.0 2064 265.0L1996 344.0C2125 408.0 2253 491.0 2253 635.0V698.0H2051V794.0H2569V698.0H2376V633.0C2376 494.0 2482 422.0 2602 376.0ZM2824 -140.0H2702V122.0H2150V218.0H2824ZM2824 273.0H2702V516.0H2524V615.0H2702V841.0H2824Z"/><path d=""/><path d="M4193 209.0H3791V-136.0H3667V209.0H3262V308.0H4193ZM3322 479.0C3457 504.0 3655 594.0 3664 704.0H3386V802.0H4073V704.0H3794C3799 601.0 3990 508.0 4134 478.0L4077 387.0C3944 421.0 3806 492.0 3729 577.0C3655 492.0 3503 420.0 3380 390.0Z"/><path d="M5079 142.0H4957V841.0H5079ZM5100 -119.0H4425V224.0H4548V-21.0H5100ZM4546 808.0C4712 808.0 4818 691.0 4818 558.0C4818 423.0 4715 307.0 4546 307.0C4377 307.0 4275 423.0 4275 558.0C4275 691.0 4381 808.0 4546 808.0ZM4546 710.0C4447 710.0 4403 636.0 4403 558.0C4403 478.0 4447 406.0 4546 406.0C4646 406.0 4688 478.0 4688 558.0C4688 636.0 4648 710.0 4546 710.0Z"/><path d="M6153 326.0H5222V423.0H5569V589.0H5695V423.0H6153ZM6046 56.0C6046 -56.0 5930 -152.0 5688 -152.0C5454 -152.0 5335 -56.0 5335 56.0C5335 170.0 5453 262.0 5688 262.0C5929 262.0 6046 170.0 6046 56.0ZM5688 168.0C5548 168.0 5465 118.0 5465 57.0C5465 -8.0 5548 -58.0 5688 -58.0C5831 -58.0 5913 -10.0 5913 57.0C5913 120.0 5831 168.0 5688 168.0ZM6029 813.0C6027 726.0 6014 596.0 6001 493.0H5877C5888 581.0 5895 639.0 5898 718.0H5347V813.0Z"/></g></svg>