<svg xmlns="http://www.w3.org/2000/svg" viewBox="31.0 -863.0 4936.0 2510.0" preserveAspectRatio="none" aria-hidden="true"><g transform="scale(1,-1)" fill="#0d0d0d"><path d="M861 417.0H152V825.0H852V707.0H310V535.0H861ZM967 194.0H580V-110.0H419V194.0H31V317.0H967Z"/><path d="M1559 789.0C1559 690.0 1556 605.0 1547 531.0H1609V857.0H1741V-78.0H1609V404.0H1524C1491 279.0 1433 179.0 1332 68.0L1223 155.0C1395 342.0 1422 470.0 1426 669.0H1336V789.0ZM1937 -111.0H1799V863.0H1937ZM1309 789.0C1309 474.0 1272 315.0 1092 139.0L988 228.0C1137 359.0 1171 496.0 1172 669.0H1053V789.0Z"/><path d="M2826 -104.0H2167V275.0H2826ZM2674 13.0V159.0H2318V13.0ZM2980 535.0H2824V325.0H2668V863.0H2824V657.0H2980ZM2543 817.0C2530 484.0 2300 376.0 2085 298.0L2009 413.0C2186 476.0 2346 553.0 2373 696.0H2073V817.0Z"/><path d="M3137 551.0C3137 705.0 3269 822.0 3504 822.0C3727 822.0 3864 703.0 3864 551.0C3864 403.0 3727 282.0 3504 282.0C3271 282.0 3137 402.0 3137 551.0ZM3289 551.0C3289 463.0 3370 403.0 3504 403.0C3634 403.0 3712 465.0 3712 551.0C3712 639.0 3633 703.0 3504 703.0C3370 703.0 3289 641.0 3289 551.0ZM3967 150.0V26.0H3031V150.0Z"/><path d="M4150 269.0V605.0H4688V704.0H4147V822.0H4846V489.0H4308V387.0H4875V269.0ZM4578 236.0V111.0H4967V-12.0H4031V111.0H4418V236.0Z"/><path d="M311 -546.0C477 -546.0 586 -654.0 586 -787.0C586 -915.0 479 -1026.0 311 -1026.0C143 -1026.0 32 -915.0 32 -787.0C32 -653.0 146 -546.0 311 -546.0ZM436 -787.0C436 -715.0 387 -664.0 311 -664.0C228 -664.0 183 -715.0 183 -787.0C183 -853.0 228 -906.0 311 -906.0C387 -906.0 436 -854.0 436 -787.0ZM1000 -843.0H844V-1041.0H688V-537.0H844V-720.0H1000ZM846 -1504.0H187V-1091.0H338V-1197.0H694V-1091.0H846ZM694 -1387.0V-1314.0H338V-1387.0Z"/><path d="M1150 -1069.0V-591.0H1856V-710.0H1309V-950.0H1867V-1069.0ZM1578 -1117.0V-1270.0H1967V-1393.0H1031V-1270.0H1418V-1117.0Z"/><path d="M2605 -1087.0C2605 -1226.0 2503 -1341.0 2338 -1341.0C2184 -1341.0 2073 -1234.0 2073 -1087.0C2073 -926.0 2197 -831.0 2338 -831.0C2480 -831.0 2605 -924.0 2605 -1087.0ZM2848 -537.0V-921.0H3009V-1047.0H2848V-1511.0H2691V-537.0ZM2417 -674.0H2629V-795.0H2036V-674.0H2260V-537.0H2417ZM2457 -1085.0C2457 -1000.0 2410 -951.0 2338 -951.0C2269 -951.0 2221 -1000.0 2221 -1081.0C2221 -1176.0 2268 -1221.0 2344 -1221.0C2409 -1221.0 2457 -1174.0 2457 -1085.0Z"/><path d="M3157 -908.0V-549.0H3315V-788.0H3863V-908.0ZM3967 -999.0V-1118.0H3031V-999.0ZM3883 -1491.0H3152V-1195.0H3312V-1372.0H3883Z"/><path d="M4077 -1440.0H4176C4175 -1506.0 4115 -1580.0 4081 -1606.0L4122 -1647.0C4186 -1609.0 4231 -1546.0 4248 -1484.0C4255 -1459.0 4258 -1420.0 4258 -1393.0V-1276.0H4077Z"/></g></svg>