<svg xmlns="http://www.w3.org/2000/svg" viewBox="31.0 -870.0 6259.0 985.0" preserveAspectRatio="none" aria-hidden="true"><g transform="scale(1,-1)" fill="#0d0d0d"><path d="M967 295.0H580V213.0H850V-115.0H695V94.0H138V213.0H418V295.0H31V413.0H967ZM157 487.0V840.0H846V487.0ZM695 601.0V726.0H308V601.0Z"/><path d="M1441 696.0V669.0C1441 540.0 1564 469.0 1681 421.0L1616 318.0C1522 353.0 1429 409.0 1369 481.0C1315 402.0 1210 337.0 1114 288.0L1027 388.0C1153 449.0 1286 533.0 1286 668.0V696.0H1090V817.0H1636V696.0ZM1888 -115.0H1732V126.0H1202V246.0H1888ZM1888 296.0H1732V863.0H1888Z"/><path d="M2336 234.0C2181 234.0 2076 313.0 2076 425.0C2076 545.0 2182 619.0 2335 619.0C2484 619.0 2598 549.0 2598 425.0C2598 311.0 2488 234.0 2336 234.0ZM3000 436.0H2844V151.0H2688V863.0H2844V558.0H3000ZM2877 -91.0H2186V190.0H2346V28.0H2877ZM2630 648.0H2034V764.0H2260V870.0H2415V764.0H2630ZM2447 426.0C2447 476.0 2398 506.0 2335 506.0C2272 506.0 2227 476.0 2227 426.0C2227 375.0 2271 348.0 2335 348.0C2399 348.0 2447 375.0 2447 426.0Z"/><path d=""/><path d="M4153 441.0C4002 478.0 3874 543.0 3807 614.0C3744 544.0 3616 476.0 3472 440.0L3396 542.0C3544 573.0 3677 643.0 3721 720.0H3460V836.0H4160V720.0H3896C3928 637.0 4077 573.0 4224 542.0ZM4277 248.0H3341V368.0H3731V501.0H3889V368.0H4277ZM4193 -91.0H3462V183.0H3622V28.0H4193Z"/><path d="M5226 -111.0H5078V397.0H4992V-78.0H4847V857.0H4992V530.0H5078V863.0H5226ZM4758 128.0C4685 174.0 4629 236.0 4588 304.0C4547 230.0 4472 146.0 4391 100.0L4300 199.0C4456 290.0 4511 415.0 4511 530.0V668.0H4352V789.0H4808V668.0H4663V530.0C4663 401.0 4714 308.0 4835 230.0Z"/><path d="M6136 -104.0H5477V275.0H6136ZM5984 13.0V159.0H5628V13.0ZM6290 535.0H6134V325.0H5978V863.0H6134V657.0H6290ZM5853 817.0C5840 484.0 5610 376.0 5395 298.0L5319 413.0C5496 476.0 5656 553.0 5683 696.0H5383V817.0Z"/></g></svg>