<svg xmlns="http://www.w3.org/2000/svg" viewBox="15.0 -813.0 8363.0 2344.0" preserveAspectRatio="none" aria-hidden="true"><g transform="scale(1,-1)" fill="#0d0d0d"><path d="M770 394.0C653 425.0 520 491.0 443 607.0C369 488.0 231 425.0 114 395.0L89 432.0C238 469.0 414 564.0 414 691.0V712.0H136V755.0H745V712.0H469V691.0C469 567.0 660 464.0 794 430.0ZM865 239.0H466V-115.0H413V239.0H15V282.0H865Z"/><path d="M1648 155.0H1596V794.0H1648ZM1672 -98.0H1075V193.0H1126V-55.0H1672ZM1178 765.0C1325 765.0 1410 655.0 1410 543.0C1410 429.0 1328 321.0 1178 321.0C1030 321.0 946 429.0 946 543.0C946 655.0 1028 765.0 1178 765.0ZM998 543.0C998 453.0 1055 365.0 1178 365.0C1306 365.0 1357 455.0 1357 543.0C1357 632.0 1305 722.0 1178 722.0C1052 722.0 998 632.0 998 543.0Z"/><path d="M2515 45.0C2515 -52.0 2414 -131.0 2201 -131.0C1990 -131.0 1887 -52.0 1887 45.0C1887 141.0 1988 221.0 2201 221.0C2413 221.0 2515 143.0 2515 45.0ZM2201 181.0C2040 181.0 1942 119.0 1942 46.0C1942 -30.0 2040 -91.0 2201 -91.0C2360 -91.0 2460 -32.0 2460 46.0C2460 123.0 2360 181.0 2201 181.0ZM2625 340.0H1775V383.0H2117V575.0H2170V383.0H2625ZM2489 766.0C2486 695.0 2474 571.0 2463 480.0H2413C2421 550.0 2432 664.0 2433 724.0H1897V766.0Z"/><path d="M3505 404.0V362.0H2655V404.0ZM3409 -120.0H2777V97.0H3332V222.0H2777V263.0H3384V55.0H2829V-79.0H3409ZM3385 644.0C3385 554.0 3271 494.0 3079 494.0C2888 494.0 2772 554.0 2772 645.0C2772 742.0 2898 796.0 3079 796.0C3268 796.0 3385 739.0 3385 644.0ZM3329 645.0C3329 722.0 3212 757.0 3079 757.0C2945 757.0 2828 723.0 2828 645.0C2828 571.0 2943 533.0 3079 533.0C3217 533.0 3329 572.0 3329 645.0Z"/><path d=""/><path d="M4379 491.0H3936V768.0H4369V726.0H3986V533.0H4379ZM4619 -120.0C4501 -81.0 4385 -4.0 4320 109.0C4263 2.0 4133 -84.0 4025 -121.0L3997 -82.0C4113 -42.0 4292 63.0 4292 188.0V219.0H4348V188.0C4348 66.0 4529 -43.0 4645 -82.0ZM3847 377.0C4057 377.0 4323 387.0 4471 399.0V359.0C4388 346.0 4269 340.0 4145 337.0V183.0H4094V336.0C4010 335.0 3925 335.0 3847 335.0ZM4591 166.0H4539V794.0H4591Z"/><path d="M5554 546.0H5403V280.0H5351V794.0H5403V590.0H5554ZM5425 -108.0H4844V213.0H5404V170.0H4894V-66.0H5425ZM5132 353.0H4729V758.0H4779V610.0H5082V758.0H5132ZM5082 395.0V569.0H4779V395.0Z"/><path d="M6344 -108.0H5772V216.0H6344ZM6295 -67.0V175.0H5822V-67.0ZM5905 707.0H6119V665.0H5905V635.0C5905 484.0 6026 413.0 6143 365.0L6121 327.0C6038 363.0 5925 423.0 5878 530.0C5826 410.0 5732 351.0 5640 305.0L5608 338.0C5729 398.0 5853 480.0 5853 634.0V665.0H5632V707.0H5853V813.0H5905ZM6344 273.0H6292V794.0H6344Z"/><path d="M6507 302.0C6507 441.0 6606 526.0 6734 526.0C6869 526.0 6963 439.0 6963 302.0C6963 166.0 6871 76.0 6734 76.0C6593 76.0 6507 174.0 6507 302.0ZM6560 302.0C6560 184.0 6633 119.0 6734 119.0C6847 119.0 6910 193.0 6910 302.0C6910 413.0 6845 482.0 6734 482.0C6632 482.0 6560 416.0 6560 302.0ZM7175 794.0V399.0H7338V356.0H7175V-114.0H7123V794.0ZM6761 650.0H7001V607.0H6470V650.0H6708V794.0H6761Z"/><path d="M8089 469.0H7472V782.0H7522V512.0H8089ZM8195 284.0H7345V326.0H8195ZM8109 -98.0H7467V170.0H7518V-55.0H8109Z"/><path d="M8294 24.0H8378V-54.0C8378 -75.0 8376 -84.0 8371 -99.0C8357 -144.0 8331 -168.0 8297 -192.0L8282 -177.0C8312 -150.0 8343 -123.0 8341 -60.0H8294Z"/><path d="M713 -606.0V-957.0H878V-1001.0H713V-1514.0H661V-606.0ZM434 -676.0C429 -1038.0 277 -1196.0 58 -1317.0L26 -1282.0C272 -1148.0 381 -969.0 382 -719.0H48V-676.0Z"/><path d="M1622 -1349.0C1622 -1455.0 1528 -1531.0 1330 -1531.0C1130 -1531.0 1035 -1455.0 1035 -1349.0C1035 -1244.0 1129 -1165.0 1330 -1165.0C1529 -1165.0 1622 -1243.0 1622 -1349.0ZM1567 -1349.0C1567 -1263.0 1482 -1205.0 1331 -1205.0C1176 -1205.0 1090 -1263.0 1090 -1349.0C1090 -1433.0 1176 -1491.0 1331 -1491.0C1482 -1491.0 1567 -1439.0 1567 -1349.0ZM1405 -1083.0C1322 -1048.0 1209 -987.0 1162 -880.0C1110 -1001.0 1016 -1059.0 924 -1106.0L892 -1073.0C1013 -1012.0 1137 -930.0 1137 -776.0V-696.0H932V-653.0H1389V-696.0H1189V-775.0C1189 -926.0 1310 -998.0 1427 -1046.0ZM1754 -858.0H1602V-1121.0H1550V-606.0H1602V-815.0H1754Z"/><path d="M2505 -1520.0C2394 -1484.0 2261 -1404.0 2201 -1290.0C2141 -1411.0 2002 -1482.0 1899 -1521.0L1873 -1484.0C1988 -1447.0 2167 -1339.0 2173 -1219.0H1904V-1177.0H2500V-1219.0H2230C2235 -1341.0 2415 -1448.0 2531 -1484.0ZM2352 -1012.0C2213 -1031.0 2027 -1032.0 1815 -1032.0V-646.0H1866V-988.0C1995 -988.0 2198 -988.0 2352 -972.0ZM2624 -812.0H2473V-1095.0H2421V-606.0H2473V-768.0H2624Z"/><path d="M3505 -1132.0H2655V-1089.0H3505ZM3419 -1498.0H2777V-1234.0H2828V-1455.0H3419ZM2772 -797.0C2772 -696.0 2870 -620.0 3079 -620.0C3284 -620.0 3385 -695.0 3385 -797.0C3385 -894.0 3290 -972.0 3079 -972.0C2870 -972.0 2772 -895.0 2772 -797.0ZM2827 -798.0C2827 -876.0 2920 -931.0 3079 -931.0C3237 -931.0 3330 -876.0 3330 -797.0C3330 -714.0 3236 -661.0 3079 -661.0C2917 -661.0 2827 -715.0 2827 -798.0Z"/><path d=""/><path d="M4675 -1119.0H3825V-1077.0H4224V-935.0H3952V-628.0H4548V-935.0H4277V-1077.0H4675ZM4498 -894.0V-670.0H4002V-894.0ZM4554 -1520.0H4502V-1267.0H3936V-1224.0H4554Z"/><path d="M5555 -1372.0H4705V-1329.0H5104V-1090.0H5157V-1329.0H5555ZM5159 -726.0C5159 -880.0 5345 -1016.0 5481 -1060.0L5452 -1100.0C5340 -1058.0 5187 -950.0 5131 -823.0C5076 -948.0 4937 -1050.0 4810 -1100.0L4780 -1061.0C4917 -1014.0 5103 -879.0 5103 -726.0V-639.0H5159Z"/><path d="M6339 -1514.0H6287V-606.0H6339ZM6185 -1267.0C6022 -1286.0 5822 -1287.0 5665 -1287.0V-945.0H5997V-708.0H5665V-666.0H6047V-985.0H5715V-1244.0C5889 -1244.0 6032 -1239.0 6185 -1229.0Z"/></g></svg>