<svg xmlns="http://www.w3.org/2000/svg" viewBox="5.0 -833.0 958.0 969.0" preserveAspectRatio="none" aria-hidden="true"><g transform="scale(1,-1)" fill="#0d0d0d"><path d="M320 326.0C161 326.0 45 425.0 45 567.0C45 705.0 165 807.0 314 807.0C480 807.0 583 698.0 583 564.0C583 428.0 482 326.0 320 326.0ZM804 833.0V453.0H963V365.0H804V-136.0H697V833.0ZM474 566.0C474 656.0 416 718.0 314 718.0C216 718.0 151 649.0 151 566.0C151 476.0 213 412.0 316 412.0C417 412.0 474 475.0 474 566.0ZM5 129.0C93 129.0 180 129.0 263 131.0V286.0H372V135.0C467 138.0 556 144.0 635 152.0V68.0C469 43.0 237 40.0 5 40.0Z"/></g></svg>