<svg xmlns="http://www.w3.org/2000/svg" viewBox="35.0 -730.0 5445.0 742.0" preserveAspectRatio="none" aria-hidden="true"><g transform="scale(1,-1)" fill="#0d0d0d"><path d="M541 702.0 312 274.0V0.0H262V273.0L35 702.0H88L287 319.0L488 702.0Z"/><path d="M1051 258.0C1051 403.0 962 489.0 862 489.0C758 489.0 672 403.0 672 258.0C672 110.0 758 27.0 862 27.0C962 27.0 1051 110.0 1051 258.0ZM1100 258.0C1100 94.0 998 -11.0 862 -11.0C725 -11.0 623 94.0 623 258.0C623 422.0 728 527.0 862 527.0C998 527.0 1100 422.0 1100 258.0Z"/><path d="M1631 258.0C1631 403.0 1542 489.0 1442 489.0C1338 489.0 1252 403.0 1252 258.0C1252 110.0 1338 27.0 1442 27.0C1542 27.0 1631 110.0 1631 258.0ZM1680 258.0C1680 94.0 1578 -11.0 1442 -11.0C1305 -11.0 1203 94.0 1203 258.0C1203 422.0 1308 527.0 1442 527.0C1578 527.0 1680 422.0 1680 258.0Z"/><path d="M1873 410.0C1912 490.0 1983 527.0 2054 527.0C2160 527.0 2244 460.0 2244 337.0V0.0H2194V328.0C2194 433.0 2124 488.0 2047 488.0C1943 488.0 1873 389.0 1873 291.0V0.0H1823V509.0H1873Z"/><path d=""/><path d="M3185 310.0H2994V349.0H3236V45.0C3145 1.0 3079 -11.0 3006 -11.0C2802 -11.0 2669 148.0 2669 351.0C2669 568.0 2810 713.0 3002 713.0C3090 713.0 3156 694.0 3211 666.0L3188 631.0C3145 652.0 3080 672.0 3001 672.0C2821 672.0 2718 523.0 2718 351.0C2718 178.0 2833 31.0 3006 31.0C3070 31.0 3138 45.0 3185 70.0Z"/><path d="M3779 258.0C3779 403.0 3690 489.0 3590 489.0C3486 489.0 3400 403.0 3400 258.0C3400 110.0 3486 27.0 3590 27.0C3690 27.0 3779 110.0 3779 258.0ZM3828 258.0C3828 94.0 3726 -11.0 3590 -11.0C3453 -11.0 3351 94.0 3351 258.0C3351 422.0 3456 527.0 3590 527.0C3726 527.0 3828 422.0 3828 258.0Z"/><path d="M3988 651.0 4038 668.0V509.0H4166V469.0H4038V120.0C4038 46.0 4089 30.0 4157 30.0V-12.0C4053 -9.0 3988 15.0 3988 115.0V469.0H3901V509.0H3988Z"/><path d="M4338 410.0C4381 498.0 4456 527.0 4519 527.0C4625 527.0 4709 460.0 4709 337.0V0.0H4659V328.0C4659 433.0 4589 488.0 4512 488.0C4408 488.0 4338 393.0 4338 294.0V0.0H4288V729.0H4338Z"/><path d="M4873 509.0H4923V0.0H4873ZM4859 730.0H4937V651.0H4859Z"/><path d="M5480 46.0C5433 6.0 5378 -11.0 5317 -11.0C5165 -11.0 5062 105.0 5062 256.0C5062 421.0 5167 527.0 5319 527.0C5371 527.0 5424 511.0 5467 490.0L5448 457.0C5413 474.0 5367 488.0 5319 488.0C5198 488.0 5111 392.0 5111 255.0C5111 99.0 5224 28.0 5321 28.0C5370 28.0 5415 43.0 5456 73.0Z"/></g></svg>